<?xml version="1.0" encoding="UTF-8"?> <svg xmlns="http://www.w3.org/2000/svg" xmlns:xlink="http://www.w3.org/1999/xlink" viewBox="0 0 413.98 353.56"> <defs> <style>.cls-1{isolation:isolate;}.cls-2{fill:#9fa1a2;}.cls-3{fill:#e9eaea;}.cls-4{fill:#2f8bc5;}.cls-16,.cls-5{fill:#fff;}.cls-6{fill:#c1c9d9;}.cls-7{fill:#bcbec0;}.cls-8{mix-blend-mode:screen;}.cls-9{fill:#f2fbfc;}.cls-10,.cls-44{fill:#68777a;}.cls-10,.cls-17,.cls-29{opacity:0.7;mix-blend-mode:multiply;}.cls-11{fill:#39392a;}.cls-12{fill:#282822;}.cls-13{fill:#dedeff;}.cls-14{fill:#f94b50;}.cls-15{fill:#ccf;}.cls-16{mix-blend-mode:soft-light;}.cls-17,.cls-30{fill:gray;}.cls-18{fill:#ec3b3e;}.cls-19{fill:#f9f9f9;}.cls-20{fill:#d2e5e0;}.cls-21{fill:#d92e4d;}.cls-22{fill:#ff3b5e;}.cls-23{fill:#ebc09b;}.cls-24{fill:#335080;}.cls-25{fill:#5379b8;}.cls-26{fill:#f2d6bf;}.cls-27{fill:#2b2b2b;}.cls-28{fill:#474747;}.cls-31{fill:#99acb3;}.cls-32{fill:#b6ccd4;}.cls-33{fill:#ff5c5c;}.cls-34{fill:#e6e4f0;}.cls-35{fill:#dddae3;}.cls-36{fill:#e03f3f;}.cls-37{fill:#14e8dd;}.cls-38{fill:#00d1d1;}.cls-39{fill:#ff8a0d;}.cls-40{fill:#ffb31a;}.cls-41{fill:#33c5ff;}.cls-42{fill:#1da7de;}.cls-43{fill:#04a5e4;}.cls-45{fill:#57b2d9;}.cls-46{fill:#26f0e3;}.cls-47{fill:#2be0f9;}.cls-48{fill:#23bfe9;}.cls-49{fill:url(#radial-gradient);}.cls-50{fill:#e8f1f1;}.cls-51{fill:#e7e7e1;}.cls-52{fill:#d5d5cc;}.cls-53{fill:#c2c2b5;}.cls-54{fill:#f7f7f5;}</style> <radialGradient id="radial-gradient" cx="369.06" cy="113.55" r="34.79" gradientTransform="translate(0 160.14) scale(1 0.64)" gradientUnits="userSpaceOnUse"> <stop offset="0" stop-color="#f9f9f9"></stop> <stop offset="0.31" stop-color="#f5f7f6"></stop> <stop offset="0.65" stop-color="#e8f0ee"></stop> <stop offset="0.99" stop-color="#d3e5e0"></stop> <stop offset="1" stop-color="#d2e5e0"></stop> </radialGradient> </defs> <title>pims</title> <g class="cls-1"> <g id="Layer_2" data-name="Layer 2"> <g id="Hands"> <polygon class="cls-2" points="251.32 343.94 176.44 343.94 191.97 282.13 235.79 282.13 251.32 343.94"></polygon> <rect class="cls-3" x="85.78" y="99.38" width="256.2" height="191.71" rx="14.11" ry="14.11"></rect> <rect class="cls-4" x="108.85" y="116.64" width="210.07" height="145.33"></rect> <path class="cls-3" d="M263.85,353.55l-100.11-.76a11.31,11.31,0,0,1-11.22-11.4v-.23a11.32,11.32,0,0,1,11.39-11.22l100.11.77a11.31,11.31,0,0,1,11.22,11.4v.22A11.3,11.3,0,0,1,263.85,353.55Z"></path> <path class="cls-2" d="M298.19,280a3.34,3.34,0,1,1-3.33-3.33A3.34,3.34,0,0,1,298.19,280Z"></path> <path class="cls-2" d="M307.51,280a3.34,3.34,0,1,1-3.33-3.33A3.34,3.34,0,0,1,307.51,280Z"></path> <path class="cls-2" d="M316.83,280a3.34,3.34,0,1,1-3.33-3.33A3.34,3.34,0,0,1,316.83,280Z"></path> <rect class="cls-5" x="216.34" y="140.31" width="76.67" height="100.99"></rect> <rect class="cls-6" x="229.94" y="188.39" width="49.47" height="4.01"></rect> <rect class="cls-6" x="229.94" y="196.85" width="49.47" height="4.01"></rect> <rect class="cls-6" x="229.94" y="205.31" width="49.47" height="4.01"></rect> <rect class="cls-6" x="229.94" y="213.77" width="49.47" height="4.01"></rect> <rect class="cls-6" x="229.94" y="222.24" width="49.47" height="4.01"></rect> <rect class="cls-7" x="230.43" y="170.13" width="10.25" height="10.25"></rect> <rect class="cls-7" x="243.29" y="170.13" width="10.25" height="10.25"></rect> <rect class="cls-7" x="256.15" y="170.13" width="10.25" height="10.25"></rect> <rect class="cls-7" x="230.43" y="156.96" width="10.25" height="10.24"></rect> <rect class="cls-7" x="243.29" y="156.96" width="10.25" height="10.24"></rect> <rect class="cls-7" x="256.15" y="156.96" width="10.25" height="10.24"></rect> <rect class="cls-7" x="269.17" y="170.13" width="10.25" height="10.25"></rect> <rect class="cls-7" x="269.17" y="156.96" width="10.25" height="10.24"></rect> </g> <g id="Bubbles"> <g class="cls-8"> <path class="cls-9" d="M307.51,138.32c1.3,23.64,25,41.56,53,40s49.61-22,48.31-45.59-25-41.56-53-40S306.21,114.68,307.51,138.32Z"></path> <polygon class="cls-9" points="330.38 168.8 311.75 185.75 316.1 156.03 330.38 168.8"></polygon> </g> <g class="cls-8"> <path class="cls-9" d="M126.29,139.07C125,162.33,100.24,179.88,71,178.27s-52-21.77-50.69-45S46.33,92.45,75.6,94.06,127.56,115.82,126.29,139.07Z"></path> <polygon class="cls-9" points="104.18 169.08 122.51 185.75 118.23 156.52 104.18 169.08"></polygon> </g> <g class="cls-8"> <path class="cls-9" d="M268.41,49.91A50.06,50.06,0,1,1,218.35,0,50,50,0,0,1,268.41,49.91Z"></path> <polygon class="cls-9" points="206.9 98.5 218.15 131.4 229.81 92.74 206.9 98.5"></polygon> </g> <g class="cls-8"> <path class="cls-9" d="M327.05,224.59c0,23.68,19.46,42.87,43.47,42.87S414,248.27,414,224.59s-19.46-42.87-43.46-42.87S327.05,200.92,327.05,224.59Z"></path> <polygon class="cls-9" points="327.62 231.79 300.1 219.01 335.13 209.98 327.62 231.79"></polygon> </g> <g class="cls-8"> <path class="cls-9" d="M98.55,224.59c0,24.09-22.06,43.62-49.28,43.62S0,248.68,0,224.59,22.06,181,49.27,181,98.55,200.5,98.55,224.59Z"></path> <polygon class="cls-9" points="95.7 231.79 123.22 219.01 88.19 209.98 95.7 231.79"></polygon> </g> <path class="cls-10" d="M114.68,143.39v-.69h-5.05v-7c.4,0,.65-.11.65-.18v-.55a7.84,7.84,0,0,0-2.89-.28,7.76,7.76,0,0,0-2.88.28v.55c0,.07.24.13.64.18h0v7h-3.77v-7c.39,0,.64-.11.64-.18v-.55a7.8,7.8,0,0,0-2.89-.28,7.76,7.76,0,0,0-2.88.28v.55c0,.07.25.13.64.18h0v7H93.17v-7c.4,0,.64-.11.64-.18v-.55a7.76,7.76,0,0,0-2.88-.28,7.8,7.8,0,0,0-2.89.28v.55c0,.07.25.13.64.18h0v7h-5v.69h1.54v9.53H83.64v2.33h31v-2.33h-1.55v-9.53Zm-9.53,0v7.31a2.72,2.72,0,0,0,0,.42l0,.13a2,2,0,0,0,.09.26.94.94,0,0,0,.06.15,1.13,1.13,0,0,0,.12.21,1,1,0,0,0,.08.14l.16.19.1.11a2.88,2.88,0,0,0,.27.22l.15.09a.94.94,0,0,0,.22.12l.17.07.14.05h0a1.78,1.78,0,0,0,.39.07H99.36a2.23,2.23,0,0,0,2-2.22v-7.31Zm-8.26,0v7.31a2.72,2.72,0,0,0,0,.42s0,.09,0,.13a2,2,0,0,0,.08.26l.06.14.12.22a1.1,1.1,0,0,0,.09.14l.15.19.11.11a2.75,2.75,0,0,0,.26.22l.15.09a1.19,1.19,0,0,0,.22.12l.18.07.13.05h0a1.78,1.78,0,0,0,.39.07H91.15a2.23,2.23,0,0,0,2-2.22v-7.31Zm-10.29,0h2.08v7.31a1.86,1.86,0,0,0,0,.42.5.5,0,0,0,0,.13,2,2,0,0,0,.08.26l.06.14.12.22.09.14c0,.06.1.13.16.19a.52.52,0,0,0,.1.11,2.75,2.75,0,0,0,.26.22l.15.09a1.27,1.27,0,0,0,.23.12l.17.07.13.05h0a1.76,1.76,0,0,0,.4.07H86.6Zm25.11,9.53h-4.1a2.22,2.22,0,0,0,2-2.22v-7.31h2.08Z"></path> <rect class="cls-11" x="82.93" y="152.22" width="31.05" height="2.33"></rect> <rect class="cls-12" x="84.48" y="142.64" width="1.42" height="9.58"></rect> <rect class="cls-12" x="111.01" y="142.64" width="1.42" height="9.58"></rect> <path class="cls-13" d="M108.93,150a2.25,2.25,0,0,1-4.49,0V134.78h4.49Z"></path> <path class="cls-14" d="M108.93,140v10a2.25,2.25,0,0,1-4.49,0V140Z"></path> <path class="cls-15" d="M109.57,134.22v.56a7.89,7.89,0,0,1-2.88.27,7.93,7.93,0,0,1-2.89-.27v-.56Z"></path> <path class="cls-13" d="M103.8,134.22a7.56,7.56,0,0,0,2.89.28,7.52,7.52,0,0,0,2.88-.28,7.89,7.89,0,0,0-2.88-.27A7.93,7.93,0,0,0,103.8,134.22Z"></path> <ellipse class="cls-5" cx="106.69" cy="134.22" rx="2.24" ry="0.15"></ellipse> <path class="cls-16" d="M106.07,135.05v17.1a2.23,2.23,0,0,1-1.63-2.15V135C104.85,135,105.42,135,106.07,135.05Z"></path> <path class="cls-13" d="M100.67,150a2.24,2.24,0,0,1-4.48,0V134.78h4.48Z"></path> <path class="cls-14" d="M100.67,146.68V150a2.24,2.24,0,0,1-4.48,0v-3.32Z"></path> <path class="cls-15" d="M101.31,134.22v.56a7.89,7.89,0,0,1-2.88.27,7.93,7.93,0,0,1-2.89-.27v-.56Z"></path> <path class="cls-13" d="M95.54,134.22a7.56,7.56,0,0,0,2.89.28,7.52,7.52,0,0,0,2.88-.28,7.89,7.89,0,0,0-2.88-.27A7.93,7.93,0,0,0,95.54,134.22Z"></path> <ellipse class="cls-5" cx="98.43" cy="134.22" rx="2.24" ry="0.15"></ellipse> <path class="cls-16" d="M97.82,135.05v17.1A2.23,2.23,0,0,1,96.19,150V135C96.59,135,97.16,135,97.82,135.05Z"></path> <path class="cls-13" d="M92.46,150A2.24,2.24,0,0,1,88,150V134.78h4.48Z"></path> <path class="cls-15" d="M93.11,134.22v.56a8,8,0,0,1-2.89.27,7.89,7.89,0,0,1-2.88-.27v-.56Z"></path> <path class="cls-13" d="M87.34,134.22a7.52,7.52,0,0,0,2.88.28,7.6,7.6,0,0,0,2.89-.28,8,8,0,0,0-2.89-.27A7.89,7.89,0,0,0,87.34,134.22Z"></path> <path class="cls-5" d="M88,134.22a7.89,7.89,0,0,0,2.24.16,7.89,7.89,0,0,0,2.24-.16,8.62,8.62,0,0,0-2.24-.15A8.62,8.62,0,0,0,88,134.22Z"></path> <path class="cls-16" d="M89.61,135.05v17.1A2.23,2.23,0,0,1,88,150V135C88.38,135,89,135,89.61,135.05Z"></path> <rect class="cls-11" x="82.93" y="142" width="31.05" height="0.69"></rect> <path class="cls-17" d="M200.22,206.82a7,7,0,0,0-.78,0,4.63,4.63,0,0,0-3.85,1.94l-.21.24h0l-.21-.24a4.6,4.6,0,0,0-3.85-1.94,7,7,0,0,0-.77,0,4.34,4.34,0,0,0-3.73,4.21V212a8.41,8.41,0,0,0,2,4.42,29,29,0,0,0,6.52,5.54h0a29,29,0,0,0,6.52-5.54,8.33,8.33,0,0,0,2-4.42V211A4.34,4.34,0,0,0,200.22,206.82Z"></path> <path class="cls-18" d="M199.77,206.37a7.28,7.28,0,0,0-.78,0,4.62,4.62,0,0,0-3.85,1.94l-.21.24h0l-.21-.24a4.6,4.6,0,0,0-3.85-1.94,7,7,0,0,0-.77,0,4.34,4.34,0,0,0-3.73,4.21v.93a8.33,8.33,0,0,0,2,4.42,29,29,0,0,0,6.52,5.54h0a29,29,0,0,0,6.52-5.54,8.33,8.33,0,0,0,2-4.42v-.92A4.34,4.34,0,0,0,199.77,206.37Zm1.59,7.28h-1.88l-1.45,3.2-.91-5.64-1.25,2.85-.52-1.19-.42.54-2,2.66-.21-4.59-1,2.31-3.37.15,0-.5,3-.14,1.78-4.24.25,5.53,1.57-2,.55-.71.39.89,1.49-3.4.92,5.67.84-1.85h2.24Z"></path> <path class="cls-14" d="M192.89,216.07l-.21-4.59-1,2.31-3.37.15,0-.5,3-.14,1.78-4.24.25,5.53,1.57-2v-4l-.21-.24a4.6,4.6,0,0,0-3.85-1.94,7,7,0,0,0-.77,0,4.34,4.34,0,0,0-3.73,4.21v.93a8.33,8.33,0,0,0,2,4.42,29,29,0,0,0,6.52,5.54v-8.06Z"></path> <path class="cls-18" d="M199.77,206.37a7.28,7.28,0,0,0-.78,0,4.62,4.62,0,0,0-3.85,1.94l-.21.24h0v4l.55-.71.39.89,1.49-3.4.92,5.67.84-1.85h2.24v.5h-1.88l-1.45,3.2-.91-5.64-1.25,2.85-.52-1.19-.42.54v8.06h0a29,29,0,0,0,6.52-5.54,8.33,8.33,0,0,0,2-4.42v-.92A4.34,4.34,0,0,0,199.77,206.37Z"></path> <polygon class="cls-19" points="193.11 209.06 191.33 213.3 188.31 213.44 188.34 213.94 191.71 213.79 192.68 211.48 192.89 216.07 194.93 213.41 194.93 212.55 193.36 214.59 193.11 209.06"></polygon> <polygon class="cls-20" points="195.35 212.87 195.87 214.06 197.12 211.22 198.03 216.85 199.48 213.65 201.36 213.65 201.36 213.15 199.12 213.15 198.28 215 197.36 209.33 195.87 212.73 195.48 211.84 194.93 212.55 194.93 213.41 195.35 212.87"></polygon> <path class="cls-17" d="M78.41,223.52l-2.89-4.33a1.08,1.08,0,0,0-.94-.5,2,2,0,0,0-.56.09,4.07,4.07,0,0,0-1,.51,2.91,2.91,0,0,0-1.18,1.26l-.15.43-.21.57-1-.35A5,5,0,0,1,68,218.62c-.1-.19-.22-.37-.34-.58a11.18,11.18,0,0,1-1.4-3.15,7.44,7.44,0,0,1-.45-2.71A3.62,3.62,0,0,1,66,211l.28-.79,0-.11.93.2a1.64,1.64,0,0,0,.32.05h.13a3.78,3.78,0,0,0,1-.15,3.19,3.19,0,0,0,1.37-.66,1.26,1.26,0,0,0,.39-1.25l-1.24-5.42a1.23,1.23,0,0,0-1.28-1h-.11a4.27,4.27,0,0,0-1,.14c-1,.27-1.59.69-1.74,1.26l-.08.3-.23.21a1,1,0,0,0-.1.11,9.37,9.37,0,0,0-2.39,8.19c.05.29.07.52.09.76a13.84,13.84,0,0,0,.63,2.94,15.29,15.29,0,0,0,2.12,5c2.13,3.3,4.65,5,7.48,5a9,9,0,0,0,1.41-.13l.57-.1.21.22.19.21a1.08,1.08,0,0,0,.81.34,1.7,1.7,0,0,0,.56-.1,3.59,3.59,0,0,0,1-.5,3.21,3.21,0,0,0,1.08-1.06A1.11,1.11,0,0,0,78.41,223.52Z"></path> <path class="cls-21" d="M76.6,221.71l-2.88-4.33a1.09,1.09,0,0,0-.94-.5,1.71,1.71,0,0,0-.57.1,3.83,3.83,0,0,0-1,.5A3,3,0,0,0,70,218.74l-.15.43-.21.57-1-.34a5,5,0,0,1-2.54-2.59c-.1-.18-.21-.37-.34-.57a11.58,11.58,0,0,1-1.4-3.16,7.44,7.44,0,0,1-.45-2.71,3.68,3.68,0,0,1,.24-1.17l.28-.79,0-.11.93.2a1.26,1.26,0,0,0,.33.05h.13a3.67,3.67,0,0,0,1-.14,3.08,3.08,0,0,0,1.37-.67,1.25,1.25,0,0,0,.39-1.24l-1.24-5.42a1.24,1.24,0,0,0-1.27-1H66a3.84,3.84,0,0,0-1,.15q-1.5.39-1.74,1.26l-.08.29L63,202l-.1.12a9.32,9.32,0,0,0-2.38,8.19c0,.29.06.51.08.75A14.56,14.56,0,0,0,61.2,214a15.49,15.49,0,0,0,2.12,5.06c2.13,3.29,4.65,5,7.48,5a8,8,0,0,0,1.41-.13l.58-.1.2.22.2.21a1,1,0,0,0,.8.34,1.7,1.7,0,0,0,.56-.1,3.59,3.59,0,0,0,1-.5,3.19,3.19,0,0,0,1.08-1A1.12,1.12,0,0,0,76.6,221.71Z"></path> <path class="cls-21" d="M64.51,208.3l.93.2a1.26,1.26,0,0,0,.33.05h.13a3.67,3.67,0,0,0,1-.14,3.08,3.08,0,0,0,1.37-.67,1.25,1.25,0,0,0,.39-1.24l-1.24-5.42a1.24,1.24,0,0,0-1.27-1H66a3.84,3.84,0,0,0-1,.15q-1.5.39-1.74,1.26l-.08.29L63,202l-.1.12,1.6,6.27Z"></path> <path class="cls-22" d="M69.68,219.74l-1-.34a5,5,0,0,1-2.54-2.59c-.1-.18-.21-.37-.34-.57a11.58,11.58,0,0,1-1.4-3.16,7.44,7.44,0,0,1-.45-2.71,3.68,3.68,0,0,1,.24-1.17l.28-.79-1.6-6.27a9.32,9.32,0,0,0-2.38,8.19c0,.29.06.51.08.75A14.56,14.56,0,0,0,61.2,214a15.49,15.49,0,0,0,2.12,5.06c2.13,3.29,4.65,5,7.48,5a8,8,0,0,0,1.41-.13l.58-.1.2.22-3.1-4.86Z"></path> <path class="cls-21" d="M76.6,221.71l-2.88-4.33a1.09,1.09,0,0,0-.94-.5,1.71,1.71,0,0,0-.57.1,3.83,3.83,0,0,0-1,.5A3,3,0,0,0,70,218.74l-.15.43L73,224l.2.21a1,1,0,0,0,.8.34,1.7,1.7,0,0,0,.56-.1,3.59,3.59,0,0,0,1-.5,3.19,3.19,0,0,0,1.08-1A1.12,1.12,0,0,0,76.6,221.71Z"></path> <path class="cls-17" d="M53.61,220.78a10.77,10.77,0,0,1-1.4-3.06,15.59,15.59,0,0,0,5.27-8c.05,0,.09,0,.14,0,.8,0,1.46-1,1.46-2.19a2.22,2.22,0,0,0-1-2.07v-.61h-.21c0-.17,0-.34-.09-.5h.1a1.11,1.11,0,0,0,0-.13,11.77,11.77,0,0,0-2.1-7.73h0a7.93,7.93,0,0,0-.83-.92l-.06-.06a9.8,9.8,0,0,0-1-.79s-.08-.07-.12-.09a9.19,9.19,0,0,0-1.16-.65l-.19-.1a10,10,0,0,0-1.34-.48l-.27-.1c-.47-.13-1-.22-1.52-.31l-.38-.07c-.53-.07-1.12-.1-1.71-.12-.16,0-.29,0-.45,0h0s0,0,0,0c-1.6,0-12.22.34-11.38,12h0v.76a2.27,2.27,0,0,0-1,2.06c0,1.2.65,2.19,1.46,2.19l0,0a15.07,15.07,0,0,0,5.58,8.52,10.72,10.72,0,0,1-1.19,2.45h0a.56.56,0,0,1,0,.08c-17.25.08-16.74,29.56-15.84,30.61,1.68,2,11.66,3.78,22.45,3.82H47c10.79,0,20.76-1.86,22.45-3.82C70.32,250.34,70.83,220.89,53.61,220.78Zm-6.87,11.44H47a1.2,1.2,0,0,0-.11.12ZM35.6,204.27c0,.15-.05.3-.07.45h0c0-.15,0-.29.07-.45Zm0,0c0,.14,0,.27-.06.4h-.14Z"></path> <path class="cls-23" d="M57.27,205.73c0,1.21-.66,2.19-1.46,2.19s-1.46-1-1.46-2.19.65-2.19,1.46-2.19S57.27,204.52,57.27,205.73Z"></path> <path class="cls-23" d="M50,212.8H40.17a10.9,10.9,0,0,1-3,7.62c3.57,1.83,5.58,21.43,15.92.22A11,11,0,0,1,50,212.8Z"></path> <path class="cls-24" d="M51.71,219a24.51,24.51,0,0,1-.86,4.77,23.59,23.59,0,0,1-2.77,4.16c-1,1.22-2,2.17-2.58,2.17,0,0-.49.8-.53.79V253.4c10.87,0,21-1.86,22.64-3.83C68.51,248.53,69,219,51.71,219Z"></path> <path class="cls-25" d="M38.43,219a25.11,25.11,0,0,0,.85,4.77,24.16,24.16,0,0,0,2.77,4.16c1,1.22,2,2.17,2.58,2.17,0,0,.49.8.53.79V253.4c-10.86,0-20.95-1.86-22.64-3.83C21.62,248.53,21.11,219,38.43,219Z"></path> <path class="cls-23" d="M45,194.63v23.48c5.9-.28,11.18-7.29,11.18-13.49C56.14,197.86,50.29,194.76,45,194.63Z"></path> <path class="cls-26" d="M44.62,218.14l.34,0V194.2h-.34c-5.43,0-11,3.52-11,10.43C33.59,210.94,38.58,218.14,44.62,218.14Z"></path> <path class="cls-23" d="M33.65,204.2c0-6.92,6-10,11.41-10h.34v-.5h-.34C38.75,193.69,33.65,197.43,33.65,204.2Z"></path> <path class="cls-27" d="M41.74,204a1.38,1.38,0,1,1-1.37-1.37A1.38,1.38,0,0,1,41.74,204Z"></path> <path class="cls-27" d="M51.2,204a1.37,1.37,0,1,1-1.37-1.37A1.38,1.38,0,0,1,51.2,204Z"></path> <path class="cls-5" d="M51.1,225.78l2.73-.3-2.16-6.61a51.65,51.65,0,0,1-2.24,6.22A60.32,60.32,0,0,1,45,230.54a58.42,58.42,0,0,1-4.38-5.45,49.92,49.92,0,0,1-2.24-6.22l-2.17,6.61,2.73.3-.33,2.34,5.57,3.54v21.67H46V231.59l5.46-3.47Z"></path> <path class="cls-26" d="M35.44,205.73c0,1.21-.65,2.19-1.46,2.19s-1.46-1-1.46-2.19.66-2.19,1.46-2.19S35.44,204.52,35.44,205.73Z"></path> <path class="cls-27" d="M43.55,206.86H36.42a1,1,0,0,1-.88-1v-3.22a1,1,0,0,1,.88-1h7.13a1,1,0,0,1,.88,1v3.22A1,1,0,0,1,43.55,206.86Zm-7-1.13h7v-3h-7Z"></path> <path class="cls-27" d="M53.73,206.86H46.61a1,1,0,0,1-.88-1v-3.22a1,1,0,0,1,.88-1h7.12a1,1,0,0,1,.89,1v3.22A1,1,0,0,1,53.73,206.86Zm-7-1.13h6.95v-3H46.7Z"></path> <rect class="cls-27" x="44.06" y="203.49" width="1.94" height="1.13"></rect> <polygon class="cls-27" points="33.54 203.69 33.52 202.91 35.75 203 35.96 204.54 33.54 203.69"></polygon> <polygon class="cls-27" points="56.22 203.69 56.22 203.06 53.94 203 53.73 204.54 56.22 203.69"></polygon> <path class="cls-27" d="M44.91,191h0c-1.6,0-12.28.33-11.37,12,0,0,2.82-6.33,6.76-5.19l4.61,2c.64.28.89.54,1.47.76,4,1.52,5.68,2.32,9.65,2C56,202.55,57.45,191.06,44.91,191Z"></path> <path class="cls-28" d="M33.54,203s2.82-6.33,6.76-5.19l4.61,2V191C43.31,190.94,32.63,191.28,33.54,203Z"></path> <path class="cls-27" d="M44.74,191h.17v8.85c.64.28.89.54,1.47.76,4,1.52,5.68,2.32,9.65,2C56,202.55,57.47,191,44.74,191Z"></path> <path class="cls-5" d="M58.82,229.27c-.58-6.18-5.73-10.21-6-10.42l-1.1.05c.06,0,5.21,4.49,5.95,10.18-2.36-.13-5.18,1.33-5.51,3l-1.91,9.56a2.93,2.93,0,0,0,.51,2,2.58,2.58,0,0,0-.08.26,2.07,2.07,0,1,0,2.42-1.62,2,2,0,0,0-1.24.14.81.81,0,0,1-.12-.51l1.91-9.57c.18-.91,2.87-2,4.39-1.68s3.58,2.33,3.4,3.24l-1.91,9.57a.78.78,0,0,1-.25.37,2,2,0,0,0-1.21-.76,2.07,2.07,0,1,0,1.62,2.43v0A3,3,0,0,0,61,243.8L63,234.23C63.3,232.51,61.12,230,58.82,229.27Z"></path> <path class="cls-28" d="M34.62,209.82a8.66,8.66,0,0,0,1.21,1.34,9.72,9.72,0,0,0,5.44,1.38c.06.41.3.72.62.72h3.54c.35,0,.64-.39.64-.87v-.87c0-.48-.29-.88-.64-.88H41.89c-.36,0-.64-.14-.64.34v.57c-2.55-.07-4-.53-5-1.22A21.22,21.22,0,0,1,34.07,208Z"></path> <path class="cls-5" d="M42.68,240.23a1,1,0,0,1-2,0,1,1,0,1,1,2,0Z"></path> <path class="cls-5" d="M42.68,243.39a1,1,0,1,1-1-1A1,1,0,0,1,42.68,243.39Z"></path> <path class="cls-5" d="M42.68,246.55a1,1,0,1,1-2,0,1,1,0,1,1,2,0Z"></path> <path class="cls-5" d="M34.76,239.06a2.35,2.35,0,1,1-2.34-2.34A2.35,2.35,0,0,1,34.76,239.06Z"></path> <path class="cls-5" d="M31.71,237.92c-.67-13,5.29-18.7,5.56-19h1.16c-.06.06-6.27,6.45-5.63,18.93Z"></path> <path class="cls-28" d="M33.55,239.07a1.18,1.18,0,1,1-1.17-1.17A1.17,1.17,0,0,1,33.55,239.07Z"></path> <g class="cls-29"> <path class="cls-30" d="M50,106l2.38-.91a2.57,2.57,0,0,0-3.3-1.49h0A2.58,2.58,0,0,0,47.53,107Z"></path> <path class="cls-30" d="M80.71,159.73H56.88a24.37,24.37,0,0,1-4-1.94l2.08-.87,10.1-4.28,14.58-.09c1.14,0,1-.83,1-2s.14-2.18-1-2.17l-34.67.2a2.74,2.74,0,0,0-.28,0,17.46,17.46,0,0,1-.72-9.94c.75-3.85,3.55-7.07,5.83-9.14a4.34,4.34,0,0,0,.63.06h0a3.9,3.9,0,0,0,2.55-.95l3.22,8.41c.73,1.92,2.22,3.17,3.51,3l.23.61c0,.05.3,0,.62-.12l2.33-.88,2.76-1c.31-.12.56-.26.54-.31l-.26-.7c.93-.83,1.16-2.67.46-4.5l-9.1-23.79c-.75-2-2.3-3.21-3.61-3,0,0,0,0,0,0L53.13,105c0-.07-.32,0-.63.1l-2.52,1-2.55,1c-.32.12-.56.28-.53.35l.53,1.37s0,0,0,0c-.94.83-1.12,2.67-.41,4.5l3.19,8.36a3.91,3.91,0,0,0-3.66,5.18c-2.67,2.51-5.82,6.34-6.74,11.07-1.55,7.92.85,13.67,4.23,17.72h0c.92,1.92,4,4,4.14,4.08H38.86c-1.15,0-1.24.92-1.24,2.07s.09,2.07,1.24,2.07H80.71c1.14,0,1-.93,1-2.07S81.85,159.73,80.71,159.73Zm-32.31,0,.05,0h-.14Z"></path> </g> <path class="cls-31" d="M39.89,140c-.09,5.52,1.29,12.5,12.58,19.53.25.15,2.79,1,4.32,1.55,0-.09.08-.18.11-.27a2.08,2.08,0,0,0-1.34-2.61c-.66-.22-16.29-5.49-13.24-21.11,1.32-6.73,8.93-11.58,9-11.62a2.08,2.08,0,0,0,.66-2.86,1.78,1.78,0,0,0-.21-.27c-1.72,1.2-3.27,2.31-3.55,2.54C45.61,127.09,40,133.25,39.89,140Z"></path> <path class="cls-32" d="M52.47,159.55c-11.29-7-12.67-14-12.58-19.53.09-6.77,5.72-12.93,8.34-15.12.28-.23,1.83-1.34,3.55-2.54a2.07,2.07,0,0,0-2.64-.39c-.38.23-9.22,5.83-10.89,14.34-3.76,19.27,15.85,25.79,16,25.85a2,2,0,0,0,.63.11,2.08,2.08,0,0,0,1.86-1.17C55.26,160.55,52.72,159.7,52.47,159.55Z"></path> <path class="cls-33" d="M58.52,138.44a1.8,1.8,0,0,1-.45.09l.22.61c0,.06.3,0,.62-.12l2.34-.87-.25-.66Z"></path> <path class="cls-33" d="M63.74,136.44,61,137.49l.25.66,2.75-1c.32-.12.56-.27.54-.32l-.26-.7A1.7,1.7,0,0,1,63.74,136.44Z"></path> <path class="cls-31" d="M60.79,137,48.37,104.47l-2.55,1c-.32.12-.56.28-.53.36l.53,1.36s0,0,0,0c-.94.82-1.11,2.66-.41,4.5l9.09,23.79c.74,1.91,2.23,3.16,3.52,3a1.8,1.8,0,0,0,.45-.09l2.48-.95Z"></path> <path class="cls-32" d="M64.74,131.6l-9.09-23.79c-.75-2-2.3-3.21-3.61-3v0l-.53-1.37c0-.08-.31,0-.63.09l-2.52,1L60.79,137l.21.54,2.74-1.05a1.7,1.7,0,0,0,.54-.34C65.21,135.27,65.44,133.43,64.74,131.6Z"></path> <path class="cls-34" d="M47.4,102a2.58,2.58,0,0,0-1.48,3.33l2.44-.93L47.44,102Z"></path> <path class="cls-35" d="M47.44,102l.92,2.41,2.38-.92A2.58,2.58,0,0,0,47.44,102Z"></path> <path class="cls-33" d="M42.49,154.05c.94,2,4.16,4.09,4.16,4.09l6.69-2.83-11.88-5.09A9.86,9.86,0,0,0,42.49,154.05Z"></path> <path class="cls-36" d="M41.46,150a1.89,1.89,0,0,0,0,.27l11.88,5.09,15-6.34Z"></path> <path class="cls-37" d="M78,146.81,43.32,147a2.06,2.06,0,0,0-2,2H79C79,147.83,79.14,146.8,78,146.81Z"></path> <path class="cls-38" d="M41.27,149s0,.08,0,.11a2.07,2.07,0,0,0,2.09,2.06L78,151c1.14,0,1-.83,1-2Z"></path> <path class="cls-32" d="M79.1,158.12H37.25c-1.14,0-1.24.93-1.24,2.07h44.1C80.11,159.05,80.24,158.12,79.1,158.12Z"></path> <path class="cls-31" d="M36,160.19c0,1.15.1,2.07,1.24,2.07H79.1c1.14,0,1-.92,1-2.07Z"></path> <path class="cls-36" d="M52.78,124a4,4,0,0,0-4-4v8A4,4,0,0,0,52.78,124Z"></path> <path class="cls-33" d="M48.78,120.05a4,4,0,0,0,0,8h0v-8Z"></path> <path class="cls-17" d="M387.45,105.88H369.09a3,3,0,0,0-3,3v13.18a3,3,0,0,0,2.34,3l-.92,4.88,8.09-4.8h11.88a3,3,0,0,0,3-3V108.91A3,3,0,0,0,387.45,105.88Zm-1.08,12.55h-6.45v-.81h0v.81h6.45v-.81h0Zm0-2.42h-6.45v-.8h0v.8h6.45v-.8h0Zm0-2.41h-6.45v-.81h0v.81h6.45v-.81h0Z"></path> <path class="cls-14" d="M368.22,105a3,3,0,0,0-3,3v13.18a3,3,0,0,0,2.34,3l-.91,4.88,8.09-4.8H378V105Zm7.33,12.55h-6.44v-.81h6.44Zm0-2.42h-6.44v-.8h6.44Zm-6.44-2.42v-.8h6.44v.8Z"></path> <path class="cls-18" d="M386.59,105h-9.12v19.24h9.12a3,3,0,0,0,3-3V108.05A3,3,0,0,0,386.59,105Zm-1.09,12.55h-6.45v-.81h6.45Zm0-2.42h-6.45v-.8h6.45Zm0-2.42h-6.45v-.8h6.45Z"></path> <rect class="cls-5" x="369.11" y="111.93" width="6.45" height="0.8"></rect> <rect class="cls-5" x="369.11" y="114.35" width="6.45" height="0.8"></rect> <rect class="cls-5" x="369.11" y="116.76" width="6.45" height="0.81"></rect> <rect class="cls-19" x="379.06" y="111.93" width="6.45" height="0.8"></rect> <rect class="cls-19" x="379.06" y="114.35" width="6.45" height="0.8"></rect> <rect class="cls-19" x="379.06" y="116.76" width="6.45" height="0.81"></rect> <path class="cls-17" d="M355.82,143.41v0a8.8,8.8,0,0,1-1.31-1.52c8.35.09,13.54-2.38,13.22-6.59,0-.31-3.84,2.39-5.21-7.17-.51-3.47-1.39-6.13-2.95-8l1.33-8.26-.29-.09c-.27-.07-6.47-1.75-10.21-1.75a38.77,38.77,0,0,0-9.91,1.67l-.33.11.12.33,1.3,7.6,0,.16c-1.77,1.9-2.8,4.63-3.32,8.25-1.38,9.56-5.19,6.86-5.22,7.17-.31,4.15,5,6.62,13.22,6.59a8,8,0,0,1-1.3,1.51v0c-10.25,0-15.42,19.13-14.16,20.39,2.08,2.08,8.21,4,18.74,4.11h1.53c10.63,0,16.81-2,18.9-4.11C371.24,162.54,366,143.34,355.82,143.41Z"></path> <path class="cls-39" d="M365.94,133.56c0-.32-3.84,2.38-5.22-7.17-1.1-7.62-4-11.38-11.92-11.53h-.47l-.12,0h-.06c-7.44.33-10.58,4.08-11.65,11.5-1.38,9.55-5.2,6.85-5.22,7.17-.36,4.74,6.63,7.29,16.93,6.42h.12l.28,0C359.33,141,366.31,138.42,365.94,133.56Z"></path> <path class="cls-40" d="M348.21,114.88h-.06c-7.44.33-10.58,4.08-11.65,11.5-1.38,9.55-5.2,6.85-5.22,7.17-.36,4.74,6.63,7.29,16.93,6.42h.12V114.86Z"></path> <path class="cls-39" d="M365.94,133.56c0-.32-3.84,2.38-5.22-7.17-1.1-7.62-4-11.38-11.92-11.53h-.47V140l.28,0C359.33,141,366.31,138.42,365.94,133.56Z"></path> <path class="cls-23" d="M348.44,155.55h.34l8.51-11.77c-1.17-.59-5.51-2.63-5.69-6.87h-6c-.19,4.24-4.52,6.28-5.7,6.87Z"></path> <path class="cls-41" d="M344.22,146.32l-1-4.7c-10.25,0-15.42,19.14-14.17,20.39,2.12,2.12,8.38,4.12,19.2,4.12h.18v-14.3C347.05,151.1,344.22,146.32,344.22,146.32Z"></path> <path class="cls-42" d="M352.34,147.43l1.69-5.81c10.14-.06,15.42,19.14,14.17,20.39-2.12,2.12-8.38,4.12-19.2,4.12h-.18V152.52C350.17,151.78,352.34,147.43,352.34,147.43Z"></path> <path class="cls-5" d="M354.32,151.73l-.35-10s-1.6,4.68-2.23,6a24.72,24.72,0,0,1-3.1,4.4,23.21,23.21,0,0,1-3.06-4.4c-.63-1.33-2.39-6.11-2.39-6.11L343,151.73l4.77.75v13.65h1.52v-13.6C351,152.32,354.32,151.73,354.32,151.73Z"></path> <path class="cls-5" d="M338.83,110.36l0-.1a39,39,0,0,1,9.81-1.65c3.73,0,10.11,1.74,10.11,1.74L357.49,118a57.15,57.15,0,0,0-8.88-1.39,49.58,49.58,0,0,0-8.48,1.29Z"></path> <path class="cls-41" d="M357.77,118.43l-.36-.08a57.59,57.59,0,0,0-8.8-1.38,49.43,49.43,0,0,0-8.4,1.28l-.36.09-.06-.37-1.31-7.59-.12-.34.34-.1a38.58,38.58,0,0,1,9.91-1.67c3.74,0,9.94,1.68,10.2,1.75l.3.08Zm-9.16-2.14a53,53,0,0,1,8.6,1.31l1.13-7a49,49,0,0,0-9.73-1.65,37.44,37.44,0,0,0-9.41,1.55l1.2,7A48.51,48.51,0,0,1,348.61,116.29Z"></path> <polygon class="cls-41" points="350.99 111.98 349.34 111.98 349.34 110.33 347.88 110.33 347.88 111.98 346.23 111.98 346.23 113.44 347.88 113.44 347.88 115.09 349.34 115.09 349.34 113.44 350.99 113.44 350.99 111.98"></polygon> <path class="cls-23" d="M358.44,129.64a3.63,3.63,0,0,0,0-.57,5.06,5.06,0,0,0-.34-1.76c-5.81.12-9-4.16-9.6-4.53v17.79c3.63-.18,7.33-3.5,9-7.36a.71.71,0,0,0,.2,0c.72,0,1.31-.88,1.31-2A2.29,2.29,0,0,0,358.44,129.64Z"></path> <path class="cls-26" d="M348.46,122.74c-2.18,2.91-5.75,6.33-9.73,6.34,0,.19,0,.38,0,.57a2.35,2.35,0,0,0-.59,1.64c0,1.08.58,2,1.3,2l.08,0c1.51,4,4.95,7.36,8.69,7.36l.29,0V122.78Z"></path> <path class="cls-28" d="M345.65,128.9a1.13,1.13,0,1,1-1.13-1.13A1.14,1.14,0,0,1,345.65,128.9Z"></path> <path class="cls-28" d="M353.46,128.9a1.14,1.14,0,1,1-1.14-1.13A1.14,1.14,0,0,1,353.46,128.9Z"></path> <path class="cls-17" d="M377.89,140.15h-5.53a1.89,1.89,0,0,0-.05-.23,2,2,0,0,0-.12-.49,1.37,1.37,0,0,0-.13-.2,1.6,1.6,0,0,0-.28-.4,1.43,1.43,0,0,0-.3-.2,1.69,1.69,0,0,0-.31-.21,1.93,1.93,0,0,0-1.49,0,1.87,1.87,0,0,0-.29.2,1.69,1.69,0,0,0-.31.21,1.84,1.84,0,0,0-.28.39c0,.07-.1.13-.14.21a1.94,1.94,0,0,0-.11.49,1.89,1.89,0,0,0-.05.23H363a1.13,1.13,0,0,0-1.17,1.1V163a1.14,1.14,0,0,0,1.17,1.1h14.92a1.15,1.15,0,0,0,1.17-1.1V141.25A1.14,1.14,0,0,0,377.89,140.15Z"></path> <path class="cls-28" d="M367.77,138l.06-.1a1,1,0,0,1,.15-.19.83.83,0,0,1,.15-.11.75.75,0,0,1,.15-.09.86.86,0,0,1,.36-.07.9.9,0,0,1,.37.07,1.1,1.1,0,0,1,.14.09.57.57,0,0,1,.16.11.67.67,0,0,1,.14.19.86.86,0,0,1,.07.1,1.68,1.68,0,0,1,.06.24s0,.07,0,.11h-1.91s0-.07,0-.1A1,1,0,0,1,367.77,138Z"></path> <path class="cls-28" d="M376.1,138.37h-5.53a1.93,1.93,0,0,0-3.86,0h-5.53a1.14,1.14,0,0,0-1.17,1.09v21.73a1.14,1.14,0,0,0,1.17,1.1H376.1a1.13,1.13,0,0,0,1.17-1.1V139.46A1.13,1.13,0,0,0,376.1,138.37Zm-7.46-.91a1,1,0,0,1,1,.91h-1.93A1,1,0,0,1,368.64,137.46Z"></path> <path class="cls-28" d="M377.27,161.19a1.13,1.13,0,0,1-1.17,1.1H361.18a1.14,1.14,0,0,1-1.17-1.1V139.46a1.14,1.14,0,0,1,1.17-1.09H376.1a1.13,1.13,0,0,1,1.17,1.09Z"></path> <polygon class="cls-5" points="376.06 144.06 372.71 140.15 361.23 140.15 361.23 160.81 376.01 160.81 376.02 144.06 376.06 144.06"></polygon> <polygon class="cls-42" points="375.56 160.33 361.76 160.33 361.76 140.65 372.54 140.65 375.56 143.97 375.56 160.33"></polygon> <polygon class="cls-5" points="362.25 159.83 362.25 141.17 372.04 141.17 372.04 144.75 374.99 144.75 374.99 159.83 362.25 159.83"></polygon> <rect class="cls-28" x="367.26" y="147.34" width="6" height="0.42"></rect> <rect class="cls-22" x="364.25" y="146.99" width="1.38" height="1.13"></rect> <rect class="cls-28" x="367.26" y="150.01" width="6" height="0.43"></rect> <rect class="cls-22" x="364.25" y="149.66" width="1.38" height="1.13"></rect> <rect class="cls-28" x="367.26" y="152.68" width="6" height="0.43"></rect> <rect class="cls-22" x="364.25" y="152.33" width="1.38" height="1.13"></rect> <rect class="cls-28" x="367.26" y="155.36" width="6" height="0.42"></rect> <rect class="cls-22" x="364.25" y="155" width="1.38" height="1.13"></rect> <path class="cls-28" d="M368.64,140.36a1.94,1.94,0,1,1,1.94-1.94A1.93,1.93,0,0,1,368.64,140.36Z"></path> <path class="cls-28" d="M371.85,140.23c0,.63-.21,1.14-.61,1.14h-5.19c-.41,0-.61-.51-.61-1.14v-.51c0-.63.2-1.14.61-1.14h5.19c.4,0,.61.51.61,1.14Z"></path> <path class="cls-5" d="M369.53,138.59a.94.94,0,1,1-.93-.94A.93.93,0,0,1,369.53,138.59Z"></path> <path class="cls-10" d="M205.31,220.06a12.08,12.08,0,0,0-12.08,12.08,12,12,0,0,0,.58,3.51l-.18.12c-2.63,1.57-4.1,2.66-6.41,2.7-5.64-.08-11.48-4.92-16.29-9.71l-1.22-1.22c2.37-10.08,2.24-21.95,2.07-26.65,4.58-1.9,9.51-8.52,12.94-13.95l.72-1.14-1.15-.67C189.92,176,194.77,165,196,159.26c.88-4.11.26-7.63-1.8-10.18s-5.22-3.81-9.27-3.81h-4.23c-.12-.53-.35-.91-.81-.91-1.67,0-1.19.87-1.81.87h-1a3.55,3.55,0,0,0-3.1-1.76,3.35,3.35,0,1,0,0,6.7,3.55,3.55,0,0,0,3.1-1.76h1c.62,0,.14.87,1.81.87.58,0,.8-.62.89-1.39h4.15c3.23,0,5.73,1,7.24,2.84s2,4.67,1.28,8c-1.31,6.09-6.18,16.54-11.43,25.07l-1.11-.64-.67,1.06c-5.61,8.86-9.42,12-11,12h-.18c-1.57,0-5.4-3.17-11-12.09l-.68-1.06-1.11.65c-5.23-8.52-10.07-18.92-11.37-25-.71-3.32-.27-6.08,1.28-8s4-2.84,7.24-2.84h2c.09.77.31,1.39.88,1.39,1.68,0,1.2-.87,1.82-.87h1a3.55,3.55,0,0,0,3.1,1.76,3.35,3.35,0,1,0,0-6.7,3.55,3.55,0,0,0-3.1,1.76h-1c-.62,0-.14-.87-1.82-.87-.45,0-.68.38-.8.91h-2c-4,0-7.26,1.32-9.27,3.81s-2.69,6.07-1.81,10.18c1.22,5.68,6.05,16.64,11.66,25.79l-1.15.67.72,1.15c3.44,5.45,8.39,12.13,13,14a115.77,115.77,0,0,1-1.31,22.5,23.08,23.08,0,0,0-8.8-4.89,14.91,14.91,0,0,0-3.73-.48,14.56,14.56,0,0,0-11.51,5.73c-3.54,4.42-4.4,10.08-2.18,14.41,1.32,2.56,3.94,7.18,13.35,7.18h0c.54,0,1.1,0,1.69,0a14.82,14.82,0,0,0,9.72-4.7,23.74,23.74,0,0,0,4.23-7.39c5,4.92,10.61,10.18,18.07,10.18a15.26,15.26,0,0,0,1.89-.13,21.29,21.29,0,0,0,8.34-3l.07,0a12.06,12.06,0,1,0,8.93-20.15Zm-45.44,17.08a9.58,9.58,0,0,1-6.07,3c-.48,0-1,0-1.4,0-4.94,0-7.41-1.75-8.74-4.34s-.61-6,1.61-8.77a9.31,9.31,0,0,1,9.86-3.45c3.21.82,6.1,3.13,8.75,5.6A21.36,21.36,0,0,1,159.87,237.14Z"></path> <path class="cls-35" d="M142.12,156c-.71-3.31-.27-6.08,1.28-8s4-2.84,7.24-2.84h9.47v-2.61h-9.47c-4,0-7.26,1.31-9.27,3.81s-2.69,6.07-1.81,10.17c1.27,5.91,6.43,17.56,12.33,26.91l2.28-1.33C148.68,173.38,143.48,162.31,142.12,156Z"></path> <path class="cls-35" d="M191.44,146.34c-2-2.5-5.22-3.81-9.27-3.81H172.7v2.61h9.47c3.23,0,5.73,1,7.24,2.84s2,4.68,1.28,8c-1.36,6.36-6.6,17.48-12.1,26.19l2.27,1.34c5.92-9.37,11.11-21.06,12.38-27C194.12,152.41,193.5,148.89,191.44,146.34Z"></path> <path class="cls-12" d="M155.3,145.66h1a3.52,3.52,0,0,0,3.09,1.76,3.35,3.35,0,1,0,0-6.7,3.52,3.52,0,0,0-3.09,1.76h-1c-.62,0-.14-.87-1.82-.87-.82,0-.94,1.25-.93,2.46s.11,2.46.93,2.46C155.16,146.53,154.68,145.66,155.3,145.66Z"></path> <path class="cls-12" d="M175.32,145.66h-1a3.55,3.55,0,0,1-3.1,1.76,3.35,3.35,0,1,1,0-6.7,3.55,3.55,0,0,1,3.1,1.76h1c.62,0,.14-.87,1.82-.87.83,0,.94,1.25.93,2.46s-.1,2.46-.93,2.46C175.46,146.53,175.94,145.66,175.32,145.66Z"></path> <path class="cls-43" d="M194.66,230.46,190.88,233c-2.62,1.56-4.1,2.65-6.4,2.7-5.65-.09-11.48-4.93-16.29-9.72L167,224.79c2.37-10.08,2.24-21.95,2.07-26.64,4.58-1.91,9.51-8.53,12.94-14l.72-1.15-4.54-2.65-.67,1.06c-5.6,8.86-9.42,12-11,12h-.18c-1.57,0-5.4-3.16-11-12.08l-.68-1.07L150.07,183l.72,1.14c3.44,5.45,8.39,12.13,13,14a115.68,115.68,0,0,1-1.31,22.49,23.08,23.08,0,0,0-8.8-4.89,14.85,14.85,0,0,0-3.73-.48A14.56,14.56,0,0,0,138.44,221c-3.54,4.43-4.39,10.09-2.18,14.42,1.32,2.55,4,7.18,13.35,7.18h0c.54,0,1.11,0,1.7-.05a14.81,14.81,0,0,0,9.71-4.69,23.91,23.91,0,0,0,4.23-7.4c5,4.92,10.61,10.18,18.07,10.18a15.26,15.26,0,0,0,1.89-.13,21.37,21.37,0,0,0,8.34-3l3.78-2.57Zm-37.54,3.93a9.58,9.58,0,0,1-6.07,3c-.48,0-.94,0-1.4,0-4.93,0-7.41-1.75-8.74-4.34s-.61-6,1.61-8.77a9.31,9.31,0,0,1,9.86-3.45c3.21.82,6.1,3.13,8.75,5.61A21.39,21.39,0,0,1,157.12,234.39Z"></path> <path class="cls-12" d="M214.65,229.39a12.09,12.09,0,1,1-12.09-12.08A12.09,12.09,0,0,1,214.65,229.39Z"></path> <path class="cls-35" d="M212.36,229.39a9.8,9.8,0,1,1-9.8-9.79A9.8,9.8,0,0,1,212.36,229.39Z"></path> <path class="cls-12" d="M207.79,229.39a5.23,5.23,0,1,1-5.23-5.22A5.23,5.23,0,0,1,207.79,229.39Z"></path> <g class="cls-29"> <path class="cls-44" d="M194.32,86.12v2.09a1.46,1.46,0,0,0,1.46,1.46h4.1a1.07,1.07,0,0,0-.08.41,1.11,1.11,0,0,0,1.11,1.11h2.77a1.11,1.11,0,0,0,1.11-1.11.91.91,0,0,0-.09-.41H234a1.07,1.07,0,0,0-.09.41A1.11,1.11,0,0,0,235,91.19h2.78a1.11,1.11,0,0,0,1.1-1.11,1.07,1.07,0,0,0-.08-.41h3.41a1.46,1.46,0,0,0,1.46-1.46V86.34c-4.46,1.65-13.71,2.79-24.4,2.79C208.11,89.13,198.53,87.89,194.32,86.12Z"></path> <path class="cls-44" d="M245.48,43.11c-2.48-1-12.77-1.66-26.38-1.66-14.15,0-25,.77-26.84,1.77A2.08,2.08,0,0,0,191,45.15l.62,37.41a2.3,2.3,0,0,0,1,1.9c2.39,2.31,13.44,4,26.62,4s24-1.68,26.52-4a2.52,2.52,0,0,0,1.18-1.94l.21-37.41A2.08,2.08,0,0,0,245.48,43.11Z"></path> </g> <rect class="cls-27" x="195.29" y="45.58" width="44.13" height="32.64" rx="1.59" ry="1.59"></rect> <path class="cls-5" d="M231.19,80.31H203.84a.83.83,0,0,0-.83.83v1.24a.82.82,0,0,0,.41.71c.73.61,7,1.08,14.6,1.08,7.16,0,12-.42,13.34-1a.83.83,0,0,0,.66-.82V81.14A.83.83,0,0,0,231.19,80.31ZM209,82.18a.62.62,0,0,1-.62.62h-2.55a.62.62,0,0,1-.61-.62v-.3a.61.61,0,0,1,.61-.61h2.55a.61.61,0,0,1,.62.61Zm5.16,0a.61.61,0,0,1-.61.61h-1.94a.61.61,0,0,1-.61-.61V81.9a.61.61,0,0,1,.61-.61h1.94a.61.61,0,0,1,.61.61Zm5.18,0a.61.61,0,0,1-.61.61h-1.94a.61.61,0,0,1-.61-.61V81.9a.62.62,0,0,1,.61-.61h1.94a.61.61,0,0,1,.61.61Zm5,0a.61.61,0,0,1-.61.61h-1.94a.61.61,0,0,1-.61-.61V81.9a.61.61,0,0,1,.61-.61h1.94a.62.62,0,0,1,.61.61Zm5.06,0a.61.61,0,0,1-.61.61h-1.94a.61.61,0,0,1-.61-.61V81.9a.61.61,0,0,1,.61-.61h1.94a.61.61,0,0,1,.61.61Z"></path> <path class="cls-5" d="M241.17,78.9a1.18,1.18,0,1,0,1.17,1.17A1.17,1.17,0,0,0,241.17,78.9Z"></path> <path class="cls-5" d="M241.19,77.55a2.53,2.53,0,1,0,2.53,2.52A2.52,2.52,0,0,0,241.19,77.55Zm0,4.34A1.82,1.82,0,1,1,243,80.07,1.81,1.81,0,0,1,241.17,81.89Z"></path> <rect class="cls-24" x="210.95" y="81.29" width="3.16" height="1.53" rx="0.61" ry="0.61"></rect> <rect class="cls-24" x="216.13" y="81.29" width="3.16" height="1.53" rx="0.61" ry="0.61"></rect> <rect class="cls-24" x="221.15" y="81.29" width="3.16" height="1.53" rx="0.61" ry="0.61"></rect> <rect class="cls-24" x="226.21" y="81.29" width="3.16" height="1.53" rx="0.61" ry="0.61"></rect> <rect class="cls-24" x="205.17" y="81.27" width="3.77" height="1.53" rx="0.61" ry="0.61"></rect> <path class="cls-24" d="M198.09,88.38a1.11,1.11,0,0,0,1.11,1.11H202a1.11,1.11,0,0,0,1.11-1.11A1.16,1.16,0,0,0,203,88h-4.82A1.17,1.17,0,0,0,198.09,88.38Z"></path> <path class="cls-24" d="M232.19,88.38a1.11,1.11,0,0,0,1.11,1.11h2.77a1.11,1.11,0,0,0,1.11-1.11,1.16,1.16,0,0,0-.08-.42h-4.83A1.16,1.16,0,0,0,232.19,88.38Z"></path> <path class="cls-24" d="M192.62,84.41v2.1A1.45,1.45,0,0,0,194.07,88h4.11a1.11,1.11,0,0,1,1-.69H202a1.12,1.12,0,0,1,1,.69h29.27a1.12,1.12,0,0,1,1-.69h2.77a1.12,1.12,0,0,1,1,.69h3.41A1.45,1.45,0,0,0,242,86.51V84.63c-4.45,1.66-13.7,2.79-24.39,2.79C206.41,87.42,196.82,86.18,192.62,84.41Z"></path> <path class="cls-24" d="M202,87.27H199.2a1.11,1.11,0,0,0-1,.69H203A1.12,1.12,0,0,0,202,87.27Z"></path> <path class="cls-24" d="M236.07,87.27H233.3a1.12,1.12,0,0,0-1,.69h4.83A1.12,1.12,0,0,0,236.07,87.27Z"></path> <path class="cls-45" d="M243.78,41.4c-2.49-.94-12.78-1.65-26.38-1.65-14.16,0-25,.77-26.85,1.77a2.07,2.07,0,0,0-1.29,1.93l.63,37.41a2.27,2.27,0,0,0,1,1.89c2.38,2.31,13.43,4,26.62,4s24-1.67,26.52-4a2.53,2.53,0,0,0,1.17-1.94l.21-37.41A2.09,2.09,0,0,0,243.78,41.4ZM232,82.38a.83.83,0,0,1-.66.82c-1.29.55-6.18,1-13.34,1-7.61,0-13.87-.47-14.6-1.08a.82.82,0,0,1-.41-.71V81.14a.83.83,0,0,1,.83-.83h27.35a.83.83,0,0,1,.83.83Zm-35.14-4.15a1.59,1.59,0,0,1-1.59-1.59V47.17a1.59,1.59,0,0,1,1.59-1.59h41a1.59,1.59,0,0,1,1.59,1.59V76.64a1.59,1.59,0,0,1-1.59,1.59Zm44.31,4.37a2.53,2.53,0,1,1,2.53-2.53A2.52,2.52,0,0,1,241.19,82.6Z"></path> <path class="cls-24" d="M241.17,78.26A1.82,1.82,0,1,0,243,80.07,1.81,1.81,0,0,0,241.17,78.26Zm0,3a1.18,1.18,0,1,1,0-2.35,1.18,1.18,0,0,1,0,2.35Z"></path> <path class="cls-14" d="M233.08,70.11a1.72,1.72,0,0,0-1.45-.73h-.29a1.65,1.65,0,0,0-1.42,1.6v.35a3.09,3.09,0,0,0,.76,1.66,10.8,10.8,0,0,0,2.45,2.07h0V70.17Z"></path> <path class="cls-18" d="M234.93,69.39h-.29a1.75,1.75,0,0,0-1.46.73l-.05.06v4.91h0A10.71,10.71,0,0,0,235.58,73a3.09,3.09,0,0,0,.76-1.66V71A1.63,1.63,0,0,0,234.93,69.39Z"></path> <path class="cls-46" d="M230.67,64.59a1,1,0,0,0-1,1,.87.87,0,0,0,.87.9.8.8,0,0,0,.44-.1.73.73,0,0,1-.23.33.87.87,0,0,1-.48.23h-.38v.51h.16a1.57,1.57,0,0,0,.29,0,1.33,1.33,0,0,0,.81-.38,1.75,1.75,0,0,0,.49-1.3C231.63,65.1,231.27,64.59,230.67,64.59Zm.37,1.25a.45.45,0,0,1-.41.21c-.25,0-.39-.16-.4-.44s.18-.53.4-.53.42.25.43.68A.11.11,0,0,1,231,65.84Z"></path> <path class="cls-46" d="M225.39,65.59l-.33-2.46h-.36l-.23,2.52h-.56l-.76-.35-.51.31h-3.12l-.54-.83-.82.83h-.44l-.15-2.23h-.36l-.31,2.32h-.3l-.83-.77-1.09.62h-2l-.84-.7-1.09.77h-3.12l-.61-.8-.8.62L205.76,63l-.26,0h-.09l-.23,2.58-.47.05-.68-.55-.46.34H199V64.32h-.39v2.57H199s0-.12,0-.11v-1h4.74l.32-.24.57.47.94-.1.13-1.42.31,1.62,1-.76.49.65h3.43l1-.67.72.6h2.23l.94-.54.73.68h.79l.08-.62,0,.45V66h1l.6-.61.39.61h3.44l.43-.26.64.3h1l.1-1.08.16,1.14,1-.37,1,.59.13-.24.06-.1-1.19-.67Z"></path> <path class="cls-46" d="M233.62,60.62h-1l0,0c.55-.53.93-.93.93-1.48a.85.85,0,0,0-.9-.86,1.24,1.24,0,0,0-.81.29l-.06.05.14.32.06.13.11-.09a.75.75,0,0,1,.49-.19c.33,0,.39.16.4.4s-.27.65-.94,1.29l-.27.26,0,0v.37h1.88Z"></path> <path class="cls-46" d="M224.82,72.26a2.05,2.05,0,0,1-1.57.76h0a2.09,2.09,0,0,1-1.57-.76,2.5,2.5,0,0,0-3.81,0,2,2,0,0,1-1.56.76h-.05a2.09,2.09,0,0,1-1.57-.76,2.5,2.5,0,0,0-3.81,0,2.05,2.05,0,0,1-1.57.76h0a2.09,2.09,0,0,1-1.57-.76,2.5,2.5,0,0,0-3.81,0,2.07,2.07,0,0,1-1.57.76h0a2.09,2.09,0,0,1-1.57-.76,2.6,2.6,0,0,0-1.9-.88h-.19v.53l.21,0a2.13,2.13,0,0,1,1.57.77,2.52,2.52,0,0,0,3.81,0,2.09,2.09,0,0,1,1.56-.77h.05a2.13,2.13,0,0,1,1.57.77,2.52,2.52,0,0,0,3.81,0,2.09,2.09,0,0,1,1.56-.77h.05a2.13,2.13,0,0,1,1.57.77,2.52,2.52,0,0,0,3.81,0,2.09,2.09,0,0,1,1.56-.77h0a2.13,2.13,0,0,1,1.57.77,2.52,2.52,0,0,0,3.81,0,2.09,2.09,0,0,1,1.56-.77h0l.2,0v-.5h-.19A2.6,2.6,0,0,0,224.82,72.26Z"></path> <path class="cls-46" d="M232.73,54.49a1,1,0,0,0,1-1,.91.91,0,0,0-.9-1,1,1,0,0,0-.44.11,1,1,0,0,1,.72-.51l.21,0h.15v-.51h-.11a1.42,1.42,0,0,0-.27,0,1.53,1.53,0,0,0-.9.41,1.76,1.76,0,0,0-.47,1.26A1.09,1.09,0,0,0,232.73,54.49Zm-.44-1.24a.46.46,0,0,1,.41-.26c.27,0,.42.16.43.49s-.16.51-.4.52-.45-.24-.47-.65A.29.29,0,0,1,232.29,53.25Z"></path> <polygon class="cls-46" points="231.01 61.13 231.01 58.3 230.57 58.3 229.9 58.66 229.99 59.01 230.03 59.14 230.45 58.91 230.45 61.13 231.01 61.13"></polygon> <path class="cls-46" d="M199,59.19h4.74L204,59l.57.46.94-.09.13-1.42.31,1.62,1-.76.49.65h3.44l.94-.68.72.6h2.23l.94-.53.73.68h.79l.08-.63,0,.46v.1h1l.6-.61.39.61h3.44l.43-.27.64.3h1l.1-1.08.15,1.15,1.05-.38,1,.59.13-.24.06-.09-1.19-.68-.76.28-.33-2.47h-.36l-.23,2.53h-.56l-.76-.35-.51.31h-3.12l-.54-.84-.82.84h-.44l-.15-2.23h-.36l-.31,2.31h-.3l-.83-.76-1.09.62h-2l-.84-.7-1.09.77h-3.12l-.61-.8-.8.62-.47-2.47-.26,0h-.09L205.18,59l-.47.05-.68-.56-.46.35H199v-1.1h-.39v2.58H199Z"></path> <path class="cls-46" d="M199,53.12h4.74l.32-.23.57.46.94-.1.13-1.42.31,1.63,1-.77.49.65h3.43l1-.67.72.6h2.23l.94-.54.73.68h.79l.08-.62,0,.45v.1h1l.6-.61.39.61h3.44l.43-.26.64.3h1l.1-1.08.16,1.15,1-.38,1,.59.13-.24.06-.1-1.19-.67-.76.27-.33-2.46h-.36L224.47,53h-.56l-.76-.35-.51.32h-3.12l-.54-.84-.82.84h-.44l-.15-2.24h-.36L216.9,53h-.3l-.83-.77-1.09.62h-2l-.84-.7-1.09.78h-3.12l-.61-.8-.8.61-.47-2.46h-.35l-.23,2.58-.47.05L204,52.4l-.46.34H199V51.65h-.39v2.57H199S199,53.64,199,53.12Z"></path> <polygon class="cls-46" points="230.03 52.46 230.45 52.23 230.45 54.44 231.01 54.44 231.01 51.62 230.57 51.62 229.9 51.98 229.99 52.33 230.03 52.46"></polygon> <path class="cls-46" d="M235.16,51.57c-.61,0-1,.56-1,1.47s.38,1.44,1,1.45,1-.58,1-1.49S235.79,51.57,235.16,51.57Zm0,2.43c-.22,0-.42-.29-.43-1s.23-1,.43-1,.42.32.42,1S235.38,54,235.14,54Z"></path> <path class="cls-46" d="M234.92,58.31c-.61,0-1,.56-1,1.46s.38,1.45,1,1.45,1-.58,1-1.48S235.55,58.31,234.92,58.31Zm0,2.42c-.22,0-.42-.28-.42-.95s.22-1,.42-1,.42.31.42,1S235.14,60.73,234.9,60.73Z"></path> <path class="cls-46" d="M233.5,66a.74.74,0,0,0,.32-.61.8.8,0,0,0-.87-.75.85.85,0,0,0-.92.81.7.7,0,0,0,.32.58.8.8,0,0,0-.41.72c0,.45.39.8,1,.81a.91.91,0,0,0,1-.87A.79.79,0,0,0,233.5,66Zm-.91-.58c0-.17.1-.3.34-.31a.3.3,0,0,1,.33.32.39.39,0,0,1-.29.36c-.26-.08-.38-.18-.39-.36h0Zm.34,1.66a.38.38,0,0,1-.42-.36h0a.46.46,0,0,1,.37-.44c.32.1.46.22.46.46S233.2,67,232.93,67Z"></path> <path class="cls-10" d="M382.81,215.26H381.1a3.41,3.41,0,0,0,3.41-3.42v-11.1a3.41,3.41,0,0,0-3.41-3.42H360.6a3.42,3.42,0,0,0-3.42,3.42v11.1a3.42,3.42,0,0,0,3.42,3.42h-1.71c-7.08,0-11.53,2.81-11.53,7.33v25.65c0,4.53,4.45,5.46,11.53,5.46h23.92c7.07,0,11.53-.93,11.53-5.46V222.59C394.34,218.07,389.88,215.26,382.81,215.26Z"></path> <path class="cls-47" d="M381,213.47H357.1c-7.08,0-11.53,2.81-11.53,7.33v25.65c0,4.53,4.45,5.46,11.53,5.46H381c7.07,0,11.53-.93,11.53-5.46V220.8C392.55,216.28,388.09,213.47,381,213.47Zm3,27.76h-29.9V219.88H384Z"></path> <path class="cls-47" d="M355.39,241.23V219.88h13.67v-6.41h-12c-7.08,0-11.53,2.81-11.53,7.33v25.65c0,4.53,4.45,5.46,11.53,5.46h12V241.23Z"></path> <path class="cls-48" d="M381,213.47h-12v6.41h13.66v21.35H369.06v10.68h12c7.07,0,11.53-.93,11.53-5.46V220.8C392.55,216.28,388.09,213.47,381,213.47Z"></path> <path class="cls-11" d="M379.31,195.53h-20.5a3.42,3.42,0,0,0-3.42,3.42v11.1a3.42,3.42,0,0,0,3.42,3.42h20.5a3.41,3.41,0,0,0,3.41-3.42V199A3.41,3.41,0,0,0,379.31,195.53Z"></path> <path class="cls-12" d="M379.31,213.47a3.41,3.41,0,0,0,3.41-3.42V199a3.41,3.41,0,0,0-3.41-3.42H369.06v17.94Z"></path> <path class="cls-11" d="M369.06,195.53H358.81a3.42,3.42,0,0,0-3.42,3.42v11.1a3.42,3.42,0,0,0,3.42,3.42h10.25Z"></path> <rect class="cls-49" x="354.96" y="219.88" width="14.09" height="21.36"></rect> <rect class="cls-50" x="354.96" y="219.88" width="14.09" height="21.36"></rect> <rect class="cls-20" x="369.06" y="219.88" width="14.09" height="21.36"></rect> <rect class="cls-12" x="367.92" y="222.87" width="2.27" height="14.52"></rect> <rect class="cls-12" x="361.8" y="228.99" width="14.51" height="2.27"></rect> <path class="cls-10" d="M362,248.59c-3.71,0-6.73.46-6.73,1v3c0,.57,3,1,6.73,1s6.74-.45,6.74-1v-3C368.78,249.05,365.76,248.59,362,248.59Z"></path> <path class="cls-51" d="M368,248.83c0,.56-3,1-6.74,1s-6.73-.46-6.73-1,3-1,6.73-1S368,248.27,368,248.83Z"></path> <path class="cls-5" d="M361.26,249.85c-3.71,0-6.73-.46-6.73-1v3c0,.57,3,1,6.73,1s6.74-.45,6.74-1v-3C368,249.39,365,249.85,361.26,249.85Z"></path> <path class="cls-5" d="M367.88,249c-.56.47-3.31.84-6.62.84s-6.05-.37-6.62-.84a.26.26,0,0,0-.11.18c0,.56,3,1,6.73,1s6.74-.46,6.74-1A.27.27,0,0,0,367.88,249Z"></path> <path class="cls-52" d="M361,249.84l2-2c-.48,0-1,0-1.5,0l-2,2C360,249.83,360.5,249.84,361,249.84Z"></path> <path class="cls-10" d="M354.64,240h-1.28a6.73,6.73,0,0,0-6.73,6.73c0,.22,0,.43,0,.64l0,.23c0,.13,0,.26.06.38s0,.19.06.29a2.45,2.45,0,0,0,.08.29l.09.32a2.09,2.09,0,0,1,.08.23l.15.35,0,.09a7.37,7.37,0,0,0,.8,1.32h0l.2.25h0a6.7,6.7,0,0,0,.71.7h0l.26.21h0a6.31,6.31,0,0,0,1.3.78l.08.05.36.14.22.08.32.1.3.08.28.06.39,0,.22,0c.21,0,.42,0,.64,0h1.28a6.74,6.74,0,0,0,0-13.47Z"></path> <path class="cls-52" d="M359.31,245.93a6.73,6.73,0,1,1-6.73-6.73A6.73,6.73,0,0,1,359.31,245.93Z"></path> <path class="cls-51" d="M353.86,239.2h-1.28a6.74,6.74,0,0,1,0,13.47h1.28a6.74,6.74,0,0,0,0-13.47Z"></path> <path class="cls-5" d="M356.72,240.64a6.72,6.72,0,0,0-9.44,9.44Z"></path> <path class="cls-5" d="M357.88,241.79l-9.44,9.44a6.64,6.64,0,0,0,4.14,1.44,6.73,6.73,0,0,0,5.3-10.88Z"></path> <path class="cls-53" d="M348.47,251.26l9.43-9.43a2.56,2.56,0,0,0-.2-.26l-9.49,9.48Z"></path> <path class="cls-5" d="M347.5,250.35l9.49-9.49c-.08-.08-.17-.14-.25-.21l-9.45,9.44Z"></path> <path class="cls-10" d="M368.89,247.67h0a3.83,3.83,0,0,1,.29-.7l0-.07a4.12,4.12,0,0,1,.39-.63.18.18,0,0,1,.05-.07,5,5,0,0,1,1-1.06l.1-.07a4.78,4.78,0,0,1,.61-.38l.08,0a5.8,5.8,0,0,1,.62-.27l.11,0a5.49,5.49,0,0,1,.7-.17l.15,0a4.77,4.77,0,0,1,.76-.07h15.59a4.67,4.67,0,0,1,.76.07l.16,0a5.49,5.49,0,0,1,.7.17l.11,0c.21.08.42.17.62.27l.08,0c.21.12.41.25.61.39l.1.07a5.5,5.5,0,0,1,1,1.06l0,.07a6.65,6.65,0,0,1,.39.63l0,.07a6.07,6.07,0,0,1,.29.7h0a5,5,0,0,1,.26,1.6,5.2,5.2,0,0,1-5.2,5.19H373.83a5.2,5.2,0,0,1-5.19-5.19A5.25,5.25,0,0,1,368.89,247.67Z"></path> <path class="cls-54" d="M390.2,253.68a5.2,5.2,0,1,0,0-10.39h-8.14v10.39Z"></path> <path class="cls-14" d="M382.06,243.29h-7.45a5.2,5.2,0,0,0,0,10.39h7.45Z"></path> <path class="cls-16" d="M395.14,246.89H369.67a5.2,5.2,0,0,1,4.94-3.6H390.2A5.19,5.19,0,0,1,395.14,246.89Z"></path> <path class="cls-10" d="M376.14,234.57a5.21,5.21,0,0,1,1.31-.95h0a5.6,5.6,0,0,1,.71-.3l.06,0a4.55,4.55,0,0,1,.73-.17l.09,0a5.64,5.64,0,0,1,1.48,0l.12,0a5.47,5.47,0,0,1,.7.16l.08,0a4.35,4.35,0,0,1,.63.25l.11.05a5.63,5.63,0,0,1,.62.37l.12.1a5.37,5.37,0,0,1,.58.49l5.76,5.76,5.27,5.26a5.68,5.68,0,0,1,.5.6.76.76,0,0,1,.08.11,5,5,0,0,1,.38.63,1,1,0,0,1,0,.1,4.91,4.91,0,0,1,.26.63.25.25,0,0,1,0,.07,4.57,4.57,0,0,1,.17.71s0,.08,0,.12a4.9,4.9,0,0,1,0,1.48s0,.06,0,.09a4.74,4.74,0,0,1-.18.72.19.19,0,0,1,0,.07,5.27,5.27,0,0,1-1.24,2,5.21,5.21,0,0,1-7.35,0l-5.26-5.27-5.76-5.76A5.18,5.18,0,0,1,376.14,234.57Z"></path> <path class="cls-54" d="M376.92,241.13a5.19,5.19,0,0,1,7.34-7.34l5.76,5.76-7.34,7.34Z"></path> <path class="cls-14" d="M390,239.55l5.27,5.26a5.19,5.19,0,1,1-7.34,7.35l-5.27-5.27Z"></path> <path class="cls-16" d="M396.24,250.85l-18-18a5.19,5.19,0,0,1,6,.95l5.76,5.76,5.27,5.27A5.2,5.2,0,0,1,396.24,250.85Z"></path> <path class="cls-10" d="M236.53,18.14H201a2.48,2.48,0,0,0-2.48,2.48V41.86A2.48,2.48,0,0,0,201,44.34h35.55A2.48,2.48,0,0,0,239,41.86V20.62A2.48,2.48,0,0,0,236.53,18.14Z"></path> <rect class="cls-19" x="197.71" y="17.35" width="39.89" height="25.59" rx="2.17" ry="2.17"></rect> <rect class="cls-18" x="197.4" y="17.04" width="40.51" height="26.2" rx="2.48" ry="2.48"></rect> <path class="cls-19" d="M200.16,18.25a1.44,1.44,0,0,0-1.44,1.43V40.6A1.44,1.44,0,0,0,200.16,42h17.4V18.25Z"></path> <path class="cls-19" d="M235.15,18.25H217.1V42h18.05a1.43,1.43,0,0,0,1.43-1.43V19.68A1.44,1.44,0,0,0,235.15,18.25Z"></path> <polygon class="cls-14" points="226.03 41.1 223.63 25 220.35 33.13 218.98 29.73 212.53 38.87 211.99 25.77 209.45 32.34 200.59 32.79 200.52 31.37 208.46 30.96 213.12 18.84 213.78 34.63 219.33 26.77 220.35 29.32 224.27 19.61 226.68 35.8 228.88 30.52 234.75 30.52 234.75 31.94 229.83 31.94 226.03 41.1"></polygon> <g class="cls-29"> <path class="cls-44" d="M93.66,119.27c0-3.27-5.93-10.61-5.93-10.61l-.13.17v0a53.05,53.05,0,0,0-4.45,6.5c2.08,3,4.45,7,4.45,9.44v.6a6.18,6.18,0,0,0,6.07-6.08Z"></path> <path class="cls-44" d="M72.17,124.75a7.41,7.41,0,0,0,14.82,0c0-4.09-7.41-13.27-7.41-13.27S72.17,120.66,72.17,124.75Z"></path> </g> <path class="cls-18" d="M86.8,108a53.94,53.94,0,0,0-4.44,6.49c2.08,3,4.44,7,4.44,9.45v.6a5.93,5.93,0,0,0,5.93-5.93C92.73,115.36,86.8,108,86.8,108Z"></path> <path class="cls-18" d="M78.8,110.7s-7.41,9.17-7.41,13.27a7.41,7.41,0,0,0,14.82,0C86.21,119.87,78.8,110.7,78.8,110.7Z"></path> <path class="cls-14" d="M87,107.88a53.55,53.55,0,0,0-4.44,6.5c2.08,3,4.44,7,4.44,9.44Z"></path> <path class="cls-18" d="M87,107.88v16.54a5.92,5.92,0,0,0,5.93-5.93C92.88,115.22,87,107.88,87,107.88Z"></path> <path class="cls-14" d="M71.39,124a7.41,7.41,0,0,0,7.41,7.41V110.7S71.39,119.87,71.39,124Z"></path> <path class="cls-18" d="M78.8,110.7v20.68A7.41,7.41,0,0,0,86.21,124C86.21,119.87,78.8,110.7,78.8,110.7Z"></path> </g> </g> </g> </svg> 