<?xml version="1.0" encoding="utf-8"?>
<svg xmlns="http://www.w3.org/2000/svg" width="614.812" height="345" viewBox="0 0 614.812 345">
  <g id="Group_12176" data-name="Group 12176" transform="translate(-229.12 -126.563)">
    <path id="Path_10312" data-name="Path 10312" d="M318.278,233.669c83.977-31.176,169.329-3.613,227.215,56.418s179.372-41.435,243.8,18.5c43.97,40.9,23.83,146.062-36.461,191.61-81.948,61.91-331.164,30.5-385.073,19.96-62.108-12.138-107.514-48.965-125.962-93.663C197.347,318.793,281.167,247.446,318.278,233.669Z" transform="translate(0 -75.124)" fill="#e7f3fe"/>
    <g id="Group_11372" data-name="Group 11372" transform="translate(292.796 126.563)">
      <g id="Group_11367" data-name="Group 11367" transform="translate(175.078)">
        <path id="Path_10313" data-name="Path 10313" d="M1547.786,201.856a69.67,69.67,0,0,0,.435-7.74c0-1.381-.045-2.751-.125-4.112l-12.79-4.138a56.221,56.221,0,0,0-4.528-15.324l8.48-10.436a69.106,69.106,0,0,0-6.718-9.765l-12.792,4.174a56.841,56.841,0,0,0-12.663-9.733l.728-13.439a68.425,68.425,0,0,0-11.166-3.958l-7.9,10.9a56.868,56.868,0,0,0-15.968-.418l-7.313-11.3a68.4,68.4,0,0,0-11.361,3.357l.017,13.459a56.746,56.746,0,0,0-13.16,9.053l-12.549-4.842a69.164,69.164,0,0,0-7.227,9.4l7.919,10.871a56.214,56.214,0,0,0-5.339,15.062l-12.989,3.456a69.706,69.706,0,0,0-.435,7.74c0,1.381.045,2.751.125,4.112l12.79,4.138a56.225,56.225,0,0,0,4.528,15.324l-8.48,10.435a69.083,69.083,0,0,0,6.718,9.765l12.792-4.174a56.824,56.824,0,0,0,12.663,9.733l-.728,13.439a68.435,68.435,0,0,0,11.166,3.957l7.9-10.9a56.869,56.869,0,0,0,15.968.418l7.313,11.3a68.385,68.385,0,0,0,11.361-3.357l-.017-13.459A56.735,56.735,0,0,0,1517.6,235.8l12.549,4.842a69.2,69.2,0,0,0,7.227-9.4l-7.92-10.872a56.208,56.208,0,0,0,5.339-15.062Zm-68.5,19.3a27.039,27.039,0,1,1,27.039-27.039A27.039,27.039,0,0,1,1479.283,221.155Z" transform="translate(-1410.344 -126.563)" fill="#9ec8ff"/>
        <g id="Group_11364" data-name="Group 11364" transform="translate(104.807 51.334)">
          <path id="Path_10314" data-name="Path 10314" d="M1929.884,427.594a1.011,1.011,0,0,1-.777-1.657,45.744,45.744,0,0,0,8.06-44.06,1.011,1.011,0,0,1,1.911-.658,47.766,47.766,0,0,1-8.417,46.011A1.009,1.009,0,0,1,1929.884,427.594Z" transform="translate(-1928.874 -380.537)" fill="#fff"/>
        </g>
        <g id="Group_11365" data-name="Group 11365" transform="translate(84.822 22.65)">
          <path id="Path_10315" data-name="Path 10315" d="M1847.079,250.544a1.007,1.007,0,0,1-.693-.275,45.4,45.4,0,0,0-15.721-9.687,1.011,1.011,0,1,1,.689-1.9,47.414,47.414,0,0,1,16.418,10.115,1.01,1.01,0,0,1-.693,1.746Z" transform="translate(-1829.999 -238.622)" fill="#fff"/>
        </g>
        <g id="Group_11366" data-name="Group 11366" transform="translate(57.441 19.864)">
          <path id="Path_10316" data-name="Path 10316" d="M1695.54,228.28a1.011,1.011,0,0,1-.246-1.991A47.877,47.877,0,0,1,1707,224.841a1.011,1.011,0,1,1,0,2.021,45.844,45.844,0,0,0-11.213,1.387A1.02,1.02,0,0,1,1695.54,228.28Z" transform="translate(-1694.53 -224.841)" fill="#fff"/>
        </g>
      </g>
      <g id="Group_11371" data-name="Group 11371" transform="translate(0 194.348)">
        <path id="Path_10317" data-name="Path 10317" d="M639.351,1140.246a48.226,48.226,0,0,0,.3-5.361c0-.957-.031-1.906-.087-2.848l-8.859-2.866a38.936,38.936,0,0,0-3.137-10.614l5.874-7.228a47.851,47.851,0,0,0-4.653-6.764l-8.86,2.891a39.373,39.373,0,0,0-8.771-6.742l.5-9.308a47.388,47.388,0,0,0-7.734-2.741l-5.471,7.55a39.393,39.393,0,0,0-11.06-.29l-5.065-7.829a47.38,47.38,0,0,0-7.869,2.326l.012,9.322a39.3,39.3,0,0,0-9.116,6.27l-8.692-3.354a47.94,47.94,0,0,0-5.006,6.508l5.485,7.53a38.938,38.938,0,0,0-3.7,10.433l-9,2.394a48.227,48.227,0,0,0-.3,5.361c0,.956.031,1.906.087,2.848l8.859,2.866a38.927,38.927,0,0,0,3.137,10.614l-5.874,7.228a47.855,47.855,0,0,0,4.653,6.764l8.86-2.891a39.36,39.36,0,0,0,8.771,6.742l-.5,9.309a47.372,47.372,0,0,0,7.734,2.741l5.471-7.55a39.38,39.38,0,0,0,11.06.29l5.065,7.829a47.4,47.4,0,0,0,7.869-2.325l-.011-9.322a39.309,39.309,0,0,0,9.116-6.27l8.692,3.354a47.929,47.929,0,0,0,5.006-6.508l-5.485-7.53a38.941,38.941,0,0,0,3.7-10.432ZM591.9,1153.614a18.728,18.728,0,1,1,18.728-18.728A18.728,18.728,0,0,1,591.9,1153.614Z" transform="translate(-544.153 -1088.095)" fill="#9ec8ff"/>
        <g id="Group_11368" data-name="Group 11368" transform="translate(72.283 35.246)">
          <path id="Path_10318" data-name="Path 10318" d="M902.781,1295.687a1.01,1.01,0,0,1-.777-1.657,31.373,31.373,0,0,0,5.528-30.218,1.011,1.011,0,1,1,1.911-.658,33.395,33.395,0,0,1-5.885,32.169A1.009,1.009,0,0,1,902.781,1295.687Z" transform="translate(-901.771 -1262.471)" fill="#fff"/>
        </g>
        <g id="Group_11369" data-name="Group 11369" transform="translate(58.441 15.377)">
          <path id="Path_10319" data-name="Path 10319" d="M845.427,1173.054a1.007,1.007,0,0,1-.693-.275,31.141,31.141,0,0,0-10.782-6.644,1.011,1.011,0,1,1,.689-1.9,33.142,33.142,0,0,1,11.479,7.072,1.01,1.01,0,0,1-.693,1.746Z" transform="translate(-833.286 -1164.174)" fill="#fff"/>
        </g>
        <g id="Group_11370" data-name="Group 11370" transform="translate(39.475 13.448)">
          <path id="Path_10320" data-name="Path 10320" d="M740.464,1157.633a1.011,1.011,0,0,1-.247-1.99,33.454,33.454,0,0,1,8.185-1.013,1.011,1.011,0,1,1,0,2.021,31.454,31.454,0,0,0-7.69.951A1,1,0,0,1,740.464,1157.633Z" transform="translate(-739.454 -1154.63)" fill="#fff"/>
        </g>
      </g>
      <path id="Path_10321" data-name="Path 10321" d="M2042.161,617.642q0-.784-.043-1.557l6.637-5.329a35.366,35.366,0,0,0-2.411-7.625l-8.57-.648a28.518,28.518,0,0,0-7.418-7.872l-.029-8.54a35.374,35.374,0,0,0-7.6-2.932l-5.857,6.3a28.493,28.493,0,0,0-10.532.826l-6.717-5.32a35.582,35.582,0,0,0-7.1,4.12l1.27,8.467a28.416,28.416,0,0,0-5.983,8.731l-8.356,1.937a35.575,35.575,0,0,0-1.234,8.055l7.359,4.255a28.172,28.172,0,0,0,3.148,10.4l-3.685,7.717a35.826,35.826,0,0,0,5.414,5.892l7.892-3.091a28.2,28.2,0,0,0,10.4,4.128l3.72,7.658c.443.016.888.027,1.335.027a35.817,35.817,0,0,0,6.526-.6l2.508-8.111a28.343,28.343,0,0,0,9.792-5.685l8.294,1.864a35.684,35.684,0,0,0,4.418-6.526l-4.807-7.061A28.311,28.311,0,0,0,2042.161,617.642Zm-28.676,12.5a11.947,11.947,0,1,1,11.947-11.947A11.947,11.947,0,0,1,2013.485,630.139Z" transform="translate(-1688.357 -490.854)" fill="#9ec8ff"/>
    </g>
    <g id="Group_11376" data-name="Group 11376" transform="translate(691.264 156.867)">
      <g id="Group_11373" data-name="Group 11373" transform="translate(48.315 3.007)" opacity="0.8">
        <path id="Path_10322" data-name="Path 10322" d="M2772.054,316.016h-10.268a7.2,7.2,0,0,1-7.191-7.191V298.558a7.2,7.2,0,0,1,7.191-7.191h10.268a7.2,7.2,0,0,1,7.191,7.191v10.268A7.2,7.2,0,0,1,2772.054,316.016Zm-10.268-21.82a4.366,4.366,0,0,0-4.361,4.361v10.268a4.366,4.366,0,0,0,4.361,4.361h10.268a4.366,4.366,0,0,0,4.361-4.361V298.558a4.366,4.366,0,0,0-4.361-4.361Z" transform="translate(-2754.595 -291.367)" fill="#9ec8ff"/>
      </g>
      <g id="Group_11374" data-name="Group 11374" transform="translate(0 3.007)" opacity="0.8">
        <path id="Path_10323" data-name="Path 10323" d="M2533.018,316.016h-10.268a7.2,7.2,0,0,1-7.191-7.191V298.558a7.2,7.2,0,0,1,7.191-7.191h10.268a7.2,7.2,0,0,1,7.191,7.191v10.268A7.2,7.2,0,0,1,2533.018,316.016Zm-10.268-21.82a4.366,4.366,0,0,0-4.361,4.361v10.268a4.366,4.366,0,0,0,4.361,4.361h10.268a4.366,4.366,0,0,0,4.361-4.361V298.558a4.366,4.366,0,0,0-4.361-4.361Z" transform="translate(-2515.56 -291.367)" fill="#9ec8ff"/>
      </g>
      <g id="Group_11375" data-name="Group 11375" transform="translate(4.373 0)">
        <path id="Path_10324" data-name="Path 10324" d="M2545.79,298.17h-.059a1.214,1.214,0,0,1-.9-.474l-7.38-9.626a1.213,1.213,0,0,1,1.925-1.476l6.508,8.489,16.992-18.205a1.213,1.213,0,0,1,1.773,1.655l-17.969,19.253A1.214,1.214,0,0,1,2545.79,298.17Z" transform="translate(-2537.197 -276.491)" fill="#f37168"/>
      </g>
    </g>
    <path id="Path_10325" data-name="Path 10325" d="M956.7,1704.206c-42.036-2.055-185.037,1.426-228.527,2.784s-93.974-1.791-120.2-6.42-177.8.394-170.924,12.84,67.535,5.568,136.322,10.57,223.488-.625,258.383,0,66.9-1.251,111.865-3.752S981.071,1705.4,956.7,1704.206Z" transform="translate(-165.726 -1254.508)" fill="#cce2ff"/>
    <g id="Group_11381" data-name="Group 11381" transform="translate(273.442 189.43)">
      <rect id="Rectangle_4124" data-name="Rectangle 4124" width="87.872" height="144.028" transform="translate(0 0)" fill="#99bbeb"/>
      <rect id="Rectangle_4125" data-name="Rectangle 4125" width="80.381" height="135.604" transform="translate(4.602 2.935)" fill="#fff"/>
      <g id="Group_11380" data-name="Group 11380" transform="translate(9.26 8.447)">
        <g id="Group_11377" data-name="Group 11377" transform="translate(19.385 8.325)">
          <path id="Path_10326" data-name="Path 10326" d="M590.122,687.224c3.025-6.509,8.146-8.593,16.554-8.593,10.012,0,15.211,3.627,16.684,8.908C605.431,687.784,590.122,687.224,590.122,687.224Z" transform="translate(-590.122 -646.684)" fill="#9bd6e8"/>
          <path id="Path_10327" data-name="Path 10327" d="M604.779,520.867c-4.238,1.19-4.053,3.571-5.465,5.782s-4.482,3.684-4.851,5.158.946,4.544-.614,6.263-2.088,2.579-1.474,4.3,1.965,4.421,2.088,4.789,1.842,2.947,3.93,3.316,6.017.983,7.982,1.842,8.282-1.1,11.789-.978,5.895-2.461,5.649-4.18,2.586-5.158,2.579-8.1c-.007-3.165-3.684-5.526-4.666-7.614s.123-5.772-3.561-7.954c-2.328-1.379-3.93-1.256-5.772-1.87S607.481,520.109,604.779,520.867Z" transform="translate(-591.721 -520.576)" fill="#3a384d"/>
          <path id="Path_10328" data-name="Path 10328" d="M659.884,620.957c-.959,1.415-1.661,1.474-2.7,0-.827-1.172-2.456-3.834-2.456-5.185V602.291a2.463,2.463,0,0,1,2.456-2.456h2.7a2.463,2.463,0,0,1,2.456,2.456v13.481C662.34,617.124,660.743,619.688,659.884,620.957Z" transform="translate(-641.668 -583.815)" fill="#f09959"/>
          <path id="Path_10329" data-name="Path 10329" d="M659.884,599.835h-2.7a2.463,2.463,0,0,0-2.456,2.456V614.32c3.034.966,5.8-.954,7.614-3.117v-8.912A2.463,2.463,0,0,0,659.884,599.835Z" transform="translate(-641.668 -583.815)" fill="#e38540"/>
          <ellipse id="Ellipse_1452" data-name="Ellipse 1452" cx="8.166" cy="11.127" rx="8.166" ry="11.127" transform="translate(8.698 5.029)" fill="#f09959"/>
          <path id="Path_10330" data-name="Path 10330" d="M641.979,539.358c-5.158,8.719-12.772,7.859-12.772,7.859s.184-11.543,6.232-12.158,9.609,1.813,10.837,5.819a9.884,9.884,0,0,1,0,6.646,10.6,10.6,0,0,1-2.947-3.991A28.676,28.676,0,0,1,641.979,539.358Z" transform="translate(-621.308 -532.057)" fill="#3a384d"/>
          <ellipse id="Ellipse_1453" data-name="Ellipse 1453" cx="2.149" cy="3.224" rx="2.149" ry="3.224" transform="translate(4.269 14.917) rotate(-25.405)" fill="#f09959"/>
          <path id="Path_10331" data-name="Path 10331" d="M706.258,591.241c-.764,1.608-.514,3.324.558,3.834s2.56-.382,3.324-1.99.514-3.325-.558-3.834S707.022,589.633,706.258,591.241Z" transform="translate(-682.431 -575.256)" fill="#f09959"/>
          <path id="Path_10332" data-name="Path 10332" d="M664.512,630.368s-1.374,1.782-3.07,1.782-3.07-1.782-3.07-1.782Z" transform="translate(-644.577 -608.176)" fill="#fff"/>
        </g>
        <path id="Path_10333" data-name="Path 10333" d="M630.781,789.546H610.158a2.4,2.4,0,0,1,0-4.8h20.623a2.4,2.4,0,0,1,0,4.8Z" transform="translate(-584.81 -723.029)" fill="#99bbeb"/>
        <path id="Path_10334" data-name="Path 10334" d="M619.652,826H591.477a2.4,2.4,0,0,1,0-4.8h28.175a2.4,2.4,0,1,1,0,4.8Z" transform="translate(-569.905 -752.113)" fill="#99bbeb"/>
        <path id="Path_10335" data-name="Path 10335" d="M564.144,965.04H495.609a1.392,1.392,0,1,1,0-2.783h68.535a1.392,1.392,0,0,1,0,2.783Z" transform="translate(-494.217 -864.658)" fill="#99bbeb"/>
        <path id="Path_10336" data-name="Path 10336" d="M564.144,997.036H495.609a1.392,1.392,0,1,1,0-2.783h68.535a1.392,1.392,0,0,1,0,2.783Z" transform="translate(-494.217 -890.186)" fill="#99bbeb"/>
        <path id="Path_10337" data-name="Path 10337" d="M564.144,1029.032H495.609a1.391,1.391,0,1,1,0-2.783h68.535a1.391,1.391,0,1,1,0,2.783Z" transform="translate(-494.217 -915.715)" fill="#99bbeb"/>
        <g id="Group_11378" data-name="Group 11378" transform="translate(8.493)">
          <path id="Path_10338" data-name="Path 10338" d="M588.084,529.852H538.719a2.487,2.487,0,0,1-2.484-2.484v-45.5a2.487,2.487,0,0,1,2.484-2.484h49.364a2.487,2.487,0,0,1,2.484,2.484v45.5A2.487,2.487,0,0,1,588.084,529.852Zm-49.364-48.444a.469.469,0,0,0-.463.463v45.5a.469.469,0,0,0,.463.463h49.364a.469.469,0,0,0,.463-.463v-45.5a.469.469,0,0,0-.463-.463Z" transform="translate(-536.235 -479.387)" fill="#99bbeb"/>
        </g>
        <g id="Group_11379" data-name="Group 11379" transform="translate(13.476 80.141)">
          <path id="Path_10339" data-name="Path 10339" d="M565.512,875.882l1.429,2.9,3.2.464-2.312,2.254.546,3.183-2.858-1.5-2.858,1.5.546-3.183-2.312-2.254,3.2-.464Z" transform="translate(-560.887 -875.882)" fill="#99bbeb"/>
          <path id="Path_10340" data-name="Path 10340" d="M623.426,875.882l1.429,2.9,3.2.464-2.312,2.254.546,3.183-2.858-1.5-2.858,1.5.546-3.183-2.312-2.254,3.2-.464Z" transform="translate(-607.095 -875.882)" fill="#99bbeb"/>
          <path id="Path_10341" data-name="Path 10341" d="M681.341,875.882l1.429,2.9,3.2.464-2.312,2.254.546,3.183-2.858-1.5-2.858,1.5.546-3.183-2.312-2.254,3.2-.464Z" transform="translate(-653.304 -875.882)" fill="#99bbeb"/>
          <path id="Path_10342" data-name="Path 10342" d="M739.255,875.882l1.429,2.9,3.2.464-2.312,2.254.546,3.183-2.858-1.5-2.858,1.5.546-3.183-2.312-2.254,3.2-.464Z" transform="translate(-699.512 -875.882)" fill="#99bbeb"/>
        </g>
      </g>
    </g>
    <g id="Group_11386" data-name="Group 11386" transform="translate(469.343 189.43)">
      <rect id="Rectangle_4126" data-name="Rectangle 4126" width="87.872" height="144.028" transform="translate(0 0)" fill="#99bbeb"/>
      <rect id="Rectangle_4127" data-name="Rectangle 4127" width="80.381" height="135.604" transform="translate(4.602 2.935)" fill="#fff"/>
      <g id="Group_11385" data-name="Group 11385" transform="translate(9.26 8.447)">
        <g id="Group_11382" data-name="Group 11382" transform="translate(19.384 9.191)">
          <path id="Path_10343" data-name="Path 10343" d="M1578.225,596.877c0,6.451,3.884,16.86,13.047,16.526s11.189-10.256,11.544-13.056S1578.225,596.877,1578.225,596.877Z" transform="translate(-1574.407 -582.321)" fill="#7a4e34"/>
          <path id="Path_10344" data-name="Path 10344" d="M1559.335,687.224c3.026-6.509,8.146-8.593,16.554-8.593,10.012,0,15.211,3.627,16.684,8.908C1574.644,687.784,1559.335,687.224,1559.335,687.224Z" transform="translate(-1559.335 -647.55)" fill="#d54a41"/>
          <path id="Path_10345" data-name="Path 10345" d="M1629.1,620.957c-.959,1.415-1.661,1.474-2.7,0-.827-1.172-2.456-3.834-2.456-5.185V602.291a2.463,2.463,0,0,1,2.456-2.456h2.7a2.463,2.463,0,0,1,2.456,2.456v13.481C1631.554,617.124,1629.957,619.688,1629.1,620.957Z" transform="translate(-1610.882 -584.681)" fill="#f09959"/>
          <path id="Path_10346" data-name="Path 10346" d="M1629.1,599.835h-2.7a2.463,2.463,0,0,0-2.456,2.456V614.32c3.033.966,5.8-.954,7.614-3.117v-8.912A2.463,2.463,0,0,0,1629.1,599.835Z" transform="translate(-1610.882 -584.681)" fill="#e38540"/>
          <ellipse id="Ellipse_1454" data-name="Ellipse 1454" cx="8.166" cy="11.127" rx="8.166" ry="11.127" transform="translate(8.699 4.163)" fill="#f09959"/>
          <path id="Path_10347" data-name="Path 10347" d="M1595.651,531.693c-.97,3.422-3.1,3.382-6.062,4.506s-4.382,2.255-5.353,4.444c-1.237,2.791.562,10.931.562,10.931s-7.508-5.619-6.64-14.455,6.078-12.258,10.982-12.258,6.768,2.988,6.768,2.988,2.612.011,5.082,2.937c3.32,3.933,2.3,13.484,0,16.906s-3.831,4.495-3.78,4.341,2.145-8.012,1.022-12.871A31.044,31.044,0,0,0,1595.651,531.693Z" transform="translate(-1574.297 -524.86)" fill="#7a4e34"/>
          <path id="Path_10348" data-name="Path 10348" d="M1633.725,630.368s-1.374,1.782-3.07,1.782-3.07-1.782-3.07-1.782Z" transform="translate(-1613.79 -609.042)" fill="#fff"/>
        </g>
        <path id="Path_10349" data-name="Path 10349" d="M1599.995,789.546h-20.623a2.4,2.4,0,1,1,0-4.8h20.623a2.4,2.4,0,0,1,0,4.8Z" transform="translate(-1554.024 -723.029)" fill="#99bbeb"/>
        <path id="Path_10350" data-name="Path 10350" d="M1588.865,826H1560.69a2.4,2.4,0,1,1,0-4.8h28.175a2.4,2.4,0,1,1,0,4.8Z" transform="translate(-1539.118 -752.113)" fill="#99bbeb"/>
        <path id="Path_10351" data-name="Path 10351" d="M1533.358,965.04h-68.536a1.392,1.392,0,0,1,0-2.783h68.536a1.392,1.392,0,0,1,0,2.783Z" transform="translate(-1463.431 -864.658)" fill="#99bbeb"/>
        <path id="Path_10352" data-name="Path 10352" d="M1533.358,997.036h-68.536a1.392,1.392,0,0,1,0-2.783h68.536a1.392,1.392,0,0,1,0,2.783Z" transform="translate(-1463.431 -890.186)" fill="#99bbeb"/>
        <path id="Path_10353" data-name="Path 10353" d="M1533.358,1029.032h-68.536a1.391,1.391,0,1,1,0-2.783h68.536a1.391,1.391,0,0,1,0,2.783Z" transform="translate(-1463.431 -915.715)" fill="#99bbeb"/>
        <g id="Group_11383" data-name="Group 11383" transform="translate(8.493)">
          <path id="Path_10354" data-name="Path 10354" d="M1557.3,529.852h-49.365a2.487,2.487,0,0,1-2.484-2.484v-45.5a2.487,2.487,0,0,1,2.484-2.484H1557.3a2.487,2.487,0,0,1,2.484,2.484v45.5A2.487,2.487,0,0,1,1557.3,529.852Zm-49.365-48.444a.469.469,0,0,0-.463.463v45.5a.469.469,0,0,0,.463.463H1557.3a.469.469,0,0,0,.463-.463v-45.5a.469.469,0,0,0-.463-.463Z" transform="translate(-1505.449 -479.387)" fill="#99bbeb"/>
        </g>
        <g id="Group_11384" data-name="Group 11384" transform="translate(13.475 80.141)">
          <path id="Path_10355" data-name="Path 10355" d="M1534.725,875.882l1.429,2.9,3.2.464-2.312,2.254.546,3.183-2.858-1.5-2.858,1.5.546-3.183-2.312-2.254,3.2-.464Z" transform="translate(-1530.101 -875.882)" fill="#99bbeb"/>
          <path id="Path_10356" data-name="Path 10356" d="M1592.64,875.882l1.429,2.9,3.2.464-2.313,2.254.546,3.183-2.859-1.5-2.858,1.5.546-3.183-2.312-2.254,3.2-.464Z" transform="translate(-1576.309 -875.882)" fill="#99bbeb"/>
          <path id="Path_10357" data-name="Path 10357" d="M1650.554,875.882l1.429,2.9,3.2.464-2.312,2.254.546,3.183-2.858-1.5-2.858,1.5.546-3.183-2.312-2.254,3.2-.464Z" transform="translate(-1622.517 -875.882)" fill="#99bbeb"/>
          <path id="Path_10358" data-name="Path 10358" d="M1708.469,875.882l1.429,2.9,3.2.464-2.312,2.254.546,3.183-2.858-1.5-2.858,1.5.546-3.183-2.312-2.254,3.2-.464Z" transform="translate(-1668.726 -875.882)" fill="#99bbeb"/>
        </g>
      </g>
    </g>
    <path id="Path_10359" data-name="Path 10359" d="M919.069,582.293H780.393L790.2,440.242H924.069Z" transform="translate(-439.848 -250.277)" fill="#99bbeb" opacity="0.2"/>
    <g id="Group_11391" data-name="Group 11391" transform="translate(355.112 163.084)">
      <rect id="Rectangle_4128" data-name="Rectangle 4128" width="120.02" height="196.72" transform="translate(0 0)" fill="#99bbeb"/>
      <rect id="Rectangle_4129" data-name="Rectangle 4129" width="109.789" height="185.213" transform="translate(6.285 4.008)" fill="#fff"/>
      <g id="Group_11390" data-name="Group 11390" transform="translate(12.648 11.907)">
        <g id="Group_11387" data-name="Group 11387" transform="translate(25.09 8.557)">
          <path id="Path_10360" data-name="Path 10360" d="M1095.709,430.944c-.077-.23-2-11.262-2.228-15.553s6.9-4.9,6.9-4.9,5.823-3.141,10.037-1.532a16.986,16.986,0,0,1,9,7.687c1.916,3.371-1.685,13.877-1.685,13.877Z" transform="translate(-1082.498 -408.497)" fill="#2e2d3d"/>
          <path id="Path_10361" data-name="Path 10361" d="M1039.168,630.137c-.027-.181.492-4.523.511-4.7.97-9.143,12.24-11.714,23.486-11.714,13.213,0,22.177,2.418,23.607,11.918.042.278.8,4.631.766,4.924C1063.049,630.9,1039.168,630.137,1039.168,630.137Z" transform="translate(-1039.167 -572.243)" fill="#d5e1e8"/>
          <path id="Path_10362" data-name="Path 10362" d="M1135.2,534.951c-1.309,1.933-2.269,2.013-3.69,0-1.13-1.6-4.9-5.251-4.9-7.1l1.548-18.4a3.364,3.364,0,0,1,3.355-3.354h3.69a3.364,3.364,0,0,1,3.355,3.354l.719,18.4C1139.273,529.7,1136.373,533.217,1135.2,534.951Z" transform="translate(-1108.932 -486.373)" fill="#f09959"/>
          <path id="Path_10363" data-name="Path 10363" d="M1136.006,506.1h-3.69a3.364,3.364,0,0,0-3.354,3.354l-1.344,16.322c4.143,1.319,9.738-1.362,12.213-4.316l-.469-12.006A3.364,3.364,0,0,0,1136.006,506.1Z" transform="translate(-1109.739 -486.373)" fill="#e38540"/>
          <path id="Path_10364" data-name="Path 10364" d="M1097.339,618.966l5.916,10.934s3.167-2.6,3.473-2.094-.562,6.956-.562,6.956,7.049.1,7.355-.211-1.43-7-.715-7,2.866,1.941,2.866,1.941l6.605-10.526-1.452-.354L1110,624.435l-11.575-5.7Z" transform="translate(-1085.581 -576.143)" fill="#bdccd4"/>
          <path id="Path_10365" data-name="Path 10365" d="M1130.81,638.924l4.393,2.948-1.361,7.825,5.925-.331-1.48-7.117,3.641-3.325-1.711-1.612h-7.7Z" transform="translate(-1112.287 -591.063)" fill="#d54a41"/>
          <path id="Path_10366" data-name="Path 10366" d="M1106.672,591.831,1101.238,597s5.536,9.846,5.843,9.846,4.7-5.428,4.7-5.428l2.812-.049,4.442,4.66,5.162-9.131-5.264-5.579s-4.495,8.683-5.312,8.887-.823.306-1.484-.2S1106.672,591.831,1106.672,591.831Z" transform="translate(-1088.692 -554.367)" fill="#d5e1e8"/>
          <ellipse id="Ellipse_1455" data-name="Ellipse 1455" cx="11.154" cy="15.198" rx="11.154" ry="15.198" transform="translate(13.268 4.716)" fill="#f09959"/>
          <path id="Path_10367" data-name="Path 10367" d="M1087.139,494.363c1.043,2.2.7,4.541-.762,5.236s-3.5-.521-4.541-2.718-.7-4.541.763-5.237S1086.1,492.166,1087.139,494.363Z" transform="translate(-1072.729 -474.682)" fill="#f09959"/>
          <path id="Path_10368" data-name="Path 10368" d="M1204.652,494.363c-1.043,2.2-.7,4.541.763,5.236s3.5-.521,4.54-2.718.7-4.541-.762-5.237S1205.7,492.166,1204.652,494.363Z" transform="translate(-1170.721 -474.682)" fill="#f09959"/>
          <path id="Path_10369" data-name="Path 10369" d="M1145.407,537.875s-2.216,3.589-4.948,3.589-4.948-3.589-4.948-3.589Z" transform="translate(-1116.037 -511.725)" fill="#fff"/>
          <path id="Path_10370" data-name="Path 10370" d="M1109.194,431.213c4.6-3.218,6.666-2.682,10.113,2.6s7.585,5.38,7.585,5.38l.536-5.482s-5.135-9.934-12.03-8.632-10.815,7.508-10.815,7.508-.336,11.632.626,12.029,1.073-3.754,1.762-4.6-.689-4.827.23-6.666S1109.194,431.213,1109.194,431.213Z" transform="translate(-1091.317 -421.638)" fill="#2e2d3d"/>
          <path id="Path_10371" data-name="Path 10371" d="M1200.773,485.439c1.6,1.757,1,8.734,1.839,8.657s1.149-6.665.919-7.355S1200.773,485.439,1200.773,485.439Z" transform="translate(-1168.109 -469.887)" fill="#2e2d3d"/>
        </g>
        <path id="Path_10372" data-name="Path 10372" d="M1067.569,787.96h-51.234a3.275,3.275,0,0,1,0-6.551h51.234a3.275,3.275,0,0,1,0,6.551Z" transform="translate(-993.246 -697.477)" fill="#99bbeb"/>
        <path id="Path_10373" data-name="Path 10373" d="M1086.361,837.748h-38.483a3.275,3.275,0,0,1,0-6.551h38.483a3.275,3.275,0,0,1,0,6.551Z" transform="translate(-1018.415 -737.202)" fill="#99bbeb"/>
        <path id="Path_10374" data-name="Path 10374" d="M1010.546,1027.657H916.937a1.9,1.9,0,0,1,0-3.8h93.609a1.9,1.9,0,1,1,0,3.8Z" transform="translate(-915.037 -890.92)" fill="#99bbeb"/>
        <path id="Path_10375" data-name="Path 10375" d="M1010.546,1071.359H916.937a1.9,1.9,0,0,1,0-3.8h93.609a1.9,1.9,0,1,1,0,3.8Z" transform="translate(-915.037 -925.789)" fill="#99bbeb"/>
        <path id="Path_10376" data-name="Path 10376" d="M1010.546,1115.06H916.937a1.9,1.9,0,0,1,0-3.8h93.609a1.9,1.9,0,1,1,0,3.8Z" transform="translate(-915.037 -960.657)" fill="#99bbeb"/>
        <g id="Group_11388" data-name="Group 11388" transform="translate(11.97)">
          <path id="Path_10377" data-name="Path 10377" d="M1044.7,434.347H977.279a3.027,3.027,0,0,1-3.023-3.023V369.183a3.027,3.027,0,0,1,3.023-3.023H1044.7a3.027,3.027,0,0,1,3.023,3.023v62.141A3.027,3.027,0,0,1,1044.7,434.347Zm-67.424-66.166a1,1,0,0,0-1,1v62.141a1,1,0,0,0,1,1H1044.7a1,1,0,0,0,1-1V369.183a1,1,0,0,0-1-1Z" transform="translate(-974.256 -366.16)" fill="#99bbeb"/>
        </g>
        <g id="Group_11389" data-name="Group 11389" transform="translate(10.284 109.09)">
          <path id="Path_10378" data-name="Path 10378" d="M972.235,905.881l1.952,3.955,4.365.634-3.158,3.079.746,4.347-3.9-2.053-3.9,2.053.746-4.347-3.158-3.079,4.365-.634Z" transform="translate(-965.918 -905.881)" fill="#99bbeb"/>
          <path id="Path_10379" data-name="Path 10379" d="M1051.337,905.881l1.952,3.955,4.365.634-3.158,3.079.746,4.347-3.9-2.053-3.9,2.053.746-4.347-3.158-3.079,4.365-.634Z" transform="translate(-1029.032 -905.881)" fill="#99bbeb"/>
          <path id="Path_10380" data-name="Path 10380" d="M1130.439,905.881l1.952,3.955,4.365.634-3.158,3.079.746,4.347-3.9-2.053-3.9,2.053.746-4.347-3.158-3.079,4.365-.634Z" transform="translate(-1092.145 -905.881)" fill="#99bbeb"/>
          <path id="Path_10381" data-name="Path 10381" d="M1209.541,905.881l1.952,3.955,4.365.634-3.159,3.079.746,4.347-3.9-2.053-3.9,2.053.746-4.347-3.158-3.079,4.365-.634Z" transform="translate(-1155.259 -905.881)" fill="#99bbeb"/>
          <path id="Path_10382" data-name="Path 10382" d="M1289.9,905.881l1.952,3.955,4.365.634-3.158,3.079.745,4.347-3.9-2.053L1286,917.9l.745-4.347-3.158-3.079,4.365-.634Z" transform="translate(-1219.375 -905.881)" fill="#99bbeb"/>
        </g>
      </g>
    </g>
    <rect id="Rectangle_4130" data-name="Rectangle 4130" width="157.363" height="5.864" rx="2.932" transform="translate(512.201 347.617)" fill="#2e5b9a"/>
    <g id="Group_11396" data-name="Group 11396" transform="translate(574.367 247.423)">
      <path id="Path_10383" data-name="Path 10383" d="M2513.156,788.978c2.087,7.357-3.01,14.938-8.624,16.531s-9.621-3.406-11.708-10.763.772-14.612,6.387-16.2S2511.069,781.621,2513.156,788.978Z" transform="translate(-2379.978 -767.371)" fill="#f09959"/>
      <path id="Path_10384" data-name="Path 10384" d="M2414.705,1536.709s14.389,22.349,16.332,23.32,6.8,1.215,4.98,4.858-2.551,17.976-4.251,18.7-16.276,2.429-14.09,0,3.531-1.214,4.635-5.587,2.653-12.632.588-14.332-14.7-17-14.7-17Z" transform="translate(-2313.006 -1372.545)" fill="#f09959"/>
      <path id="Path_10385" data-name="Path 10385" d="M1966.5,1584.192s-17.491,28.828-20.73,31.419-13.928,6.478-5.183,7.126,12.956-2.915,18.463-4.535,12.308-2.591,9.717-6.8-1.515-13.4,4.071-19.234S1966.5,1584.192,1966.5,1584.192Z" transform="translate(-1937.219 -1410.43)" fill="#f09959"/>
      <path id="Path_10386" data-name="Path 10386" d="M2142.011,1253.377s-43.3-1.132-60.466,12.956c-10.041,15.224-34.332,60.142-36.22,65.092,1.3,1.3,8.583,3.634,11.823,3.31,9.555-11.394,22.185-21.243,27.208-30.18,6.19-11.013,8.1-16.519,18.139-17.491s32.715-4.211,39.517-4.211S2142.011,1253.377,2142.011,1253.377Z" transform="translate(-2023.473 -1146.464)" fill="#6791c9"/>
      <path id="Path_10387" data-name="Path 10387" d="M2637.281,1507.227h-2.269l-16.276-67.9h4.993Z" transform="translate(-2480.986 -1294.842)" fill="#2e5b9a"/>
      <path id="Path_10388" data-name="Path 10388" d="M2374.111,1497.75h2.27l18.676-70.305h-4.993Z" transform="translate(-2285.805 -1285.366)" fill="#2e5b9a"/>
      <path id="Path_10389" data-name="Path 10389" d="M2309.659,1238.789l-25.174,4.345s-33.453.307-48.744,3.156c-13.912,2.591-15.962,18.4,0,40.165,9.067,12.365,16.734,22.228,32.412,33.349,3.988-2.928,5.513-4.036,6.615-11.081-1.135-1.556-4.072-11.293-4.983-13.2-8.672-18.127-20.246-24.719-20.407-26.5,1.944-3.158,51.478,16.461,61.327,4.92C2320.108,1262.923,2309.659,1238.789,2309.659,1238.789Z" transform="translate(-2166.454 -1134.841)" fill="#75a1de"/>
      <path id="Path_10390" data-name="Path 10390" d="M2524.1,955.7a26.342,26.342,0,0,0-19.7,4.9c-5.518,5.625-11.762,14.9-11.38,30.2.486,19.434-3.007,20.682.636,26.026,15.2,6.276,41.19,33.24,35.069,4.332-4.432-20.931,9.721-36.533-1.7-59.751C2526.1,959.519,2524.939,957.686,2524.1,955.7Z" transform="translate(-2379.847 -908.74)" fill="#f37168"/>
      <path id="Path_10391" data-name="Path 10391" d="M2493.02,1017.28c-.3,10.131-1.726,13.116-.632,16.292,6.2.633,17.529,3.112,20.361,7.077,3.239,4.534,6.478,5.182,4.967,1.835s-5.507-8.1.648-24.4,9.069-27.316,3.023-38.653Z" transform="translate(-2379.851 -927.905)" fill="#d54a41"/>
      <path id="Path_10392" data-name="Path 10392" d="M2573.139,875.813a79.069,79.069,0,0,1-5.085-20.523l-10.688,3.158s6.073,13.6.243,18.462a55.735,55.735,0,0,0-4.167,3.805A26.341,26.341,0,0,1,2573.139,875.813Z" transform="translate(-2428.888 -828.856)" fill="#f09959"/>
      <path id="Path_10393" data-name="Path 10393" d="M2583.929,860.12c-.633-.563-1.425-1.267-2.258-2l-8.719,2.576-.018.047a35.6,35.6,0,0,1,2.723,10.648c2.6-1.576,5.443-4.146,8.7-8.636C2584.177,861.757,2584.038,860.869,2583.929,860.12Z" transform="translate(-2444.442 -831.113)" fill="#e38540"/>
      <path id="Path_10394" data-name="Path 10394" d="M2357.387,970.659c-11.009,3.85-9.788,15.447-19.919,32.551-5.243,8.851-10.113,8.72-10.113,8.72a234.586,234.586,0,0,1-27.171-1.72c-9.314-1.139-9.906,1.634-3.428,3.95,13.064,4.671,26.622,9.7,37.553,8.484s29.628-29.106,30.592-36.366C2366.235,976.236,2362.931,968.72,2357.387,970.659Z" transform="translate(-2220.651 -920.662)" fill="#f09959"/>
      <g id="Group_11392" data-name="Group 11392" transform="translate(92.367 73.956)">
        <path id="Path_10395" data-name="Path 10395" d="M2432.9,1163.76q-1.027,0-2.1-.026a104.713,104.713,0,0,1-19.986-2.46c-5.73-1.165-8.886-1.806-12.56-.051a2.83,2.83,0,0,1-2.44-5.106c5.384-2.572,9.89-1.657,16.126-.389a99.718,99.718,0,0,0,19,2.348c9.483.236,15.266-1.171,18.2-4.421,2.611-2.9,3.375-7.761,2.4-15.311-.332-2.584-.665-4.734-.958-6.63-.827-5.349-1.373-8.884-.7-14.347.628-5.073,2.309-11.832,6.2-24.936a2.83,2.83,0,1,1,5.425,1.611c-7.251,24.419-6.883,26.8-5.335,36.807.3,1.93.637,4.117.978,6.773,1.2,9.311-.015,15.61-3.815,19.823C2449.422,1161.784,2443.071,1163.76,2432.9,1163.76Z" transform="translate(-2394.199 -1090.406)" fill="#2e5b9a"/>
      </g>
      <path id="Path_10396" data-name="Path 10396" d="M1967.686,1704.4c-11.606,5.676-17.852,8.929-21.573,8.619-.879-.073-1.606-.163-2.217-.258-4.139,2.446-10.746,5.337-3.312,5.888,8.746.648,12.956-2.915,18.463-4.535s12.308-2.591,9.717-6.8A8.858,8.858,0,0,1,1967.686,1704.4Z" transform="translate(-1937.219 -1506.341)" fill="#d54a41"/>
      <path id="Path_10397" data-name="Path 10397" d="M2468.82,1654.431c-.284,9.189-1.547,18.294-7.167,20.014a9.445,9.445,0,0,1-4.049.361c-.884,1.093-1.962,1.1-3.41,2.713-2.186,2.429,12.389.729,14.09,0s2.429-15.061,4.251-18.7C2474.031,1655.822,2471.02,1655.124,2468.82,1654.431Z" transform="translate(-2349.523 -1466.472)" fill="#d54a41"/>
      <g id="Group_11393" data-name="Group 11393" transform="translate(19.992 63.271)">
        <path id="Path_10398" data-name="Path 10398" d="M2090.73,1075.269h-36.87a2.829,2.829,0,0,1-2.566-1.637l-14.9-32.067a2.83,2.83,0,1,1,5.132-2.385l14.139,30.429h35.065a2.83,2.83,0,0,1,0,5.66Z" transform="translate(-2036.13 -1037.542)" fill="#75a1de"/>
      </g>
      <path id="Path_10399" data-name="Path 10399" d="M2215.011,1153.478c-7.45-.108-14.838-4.548-18.509-3.9s-15.656,8.962-14.144,9.286,11.013-4.6,11.337-4.676,2.375,3.411,7.45,4.691.036-3.8,15.766.948C2227.138,1162.915,2215.011,1153.478,2215.011,1153.478Z" transform="translate(-2132.705 -1063.61)" fill="#f09959"/>
      <path id="Path_10400" data-name="Path 10400" d="M2545.923,913.192l1.1,8.82s-9.641.574-14.437,3.273-11.877,10.5-11.877,10.5l5.784-9.958.833-6.37Z" transform="translate(-2402.768 -875.055)" fill="#f2e5de"/>
      <path id="Path_10401" data-name="Path 10401" d="M2403.5,965.913c-7.161-1.342-10.473,5.074-15.115,15.548s-12.568,23.193-14.145,24.833-26.56,0-26.56,0-.756,7.234,0,8.1,5.075.756,5.075.756,1.727,1.38,3.347,2.471,15.331,3.143,21.7,2.819,12.2-.864,13.064-1.836,18.247-27.748,19.326-37.358S2407.153,966.6,2403.5,965.913Z" transform="translate(-2264.446 -916.979)" fill="#f2e5de"/>
      <path id="Path_10402" data-name="Path 10402" d="M2475.152,729.394c-13.543.648-11.419,21.021-11.419,21.021s3.517,1.086,10.886-.129c-.566-2.186-.324-7.774-.324-7.774a50.924,50.924,0,0,0,1.943,7.288c1.558.714,3.32.081,6.316-.643,1.539,6.473,5.886,9.209,8.863,10.144,3.289,1.034,6.771,2.267,10.657.324s1.75-21.81-.314-25.8c-3.1-6-8.247-11.364-17.154-8.53A66.169,66.169,0,0,0,2475.152,729.394Z" transform="translate(-2357.216 -724.512)" fill="#303c60"/>
      <path id="Path_10403" data-name="Path 10403" d="M2637.22,862.621l5.537,8.087s-6.136,15.332,11.71,22.278c13.977,5.44,12.331,15.025,6.014,24.665s3.779,18.057,3.779,18.057,1.54-10.678,15.12-12.694c18.517-2.748,23.76-27.609,9.929-40.039-11.445-10.286-14.927-1.768-22.674-11s-22.372-3-22.372-3l-5.36-7.817Z" transform="translate(-2495.733 -833.543)" fill="#303c60"/>
      <g id="Group_11394" data-name="Group 11394" transform="translate(148.039 31.915)">
        <path id="Path_10404" data-name="Path 10404" d="M2721.544,924.969a.493.493,0,0,1-.432-.729c4.656-8.509.857-18.818-1.054-21.61-.2-.3-.4-.6-.6-.913-1.877-2.931-4.214-6.578-16.682-8.822-3-.541-5.434-2.325-8.008-4.215-5.317-3.9-11.342-8.327-24.435-2.3a.492.492,0,1,1-.412-.895c13.619-6.269,19.894-1.663,25.43,2.4,2.48,1.82,4.822,3.539,7.6,4.039,12.89,2.321,15.355,6.169,17.336,9.26.2.311.387.6.582.888,2,2.926,5.982,13.726,1.105,22.639A.492.492,0,0,1,2721.544,924.969Z" transform="translate(-2669.636 -882.409)" fill="#303c60"/>
      </g>
      <g id="Group_11395" data-name="Group 11395" transform="translate(124.061 18.102)">
        <path id="Path_10405" data-name="Path 10405" d="M2565.474,833.334a19.5,19.5,0,0,1-2.876-.231c-4.738-.71-11.094-3.4-11.593-18.523a.492.492,0,0,1,.984-.032c.205,6.232,1.442,10.844,3.675,13.706a10.329,10.329,0,0,0,7.08,3.875c4.384.656,7.291-.153,8.637-2.406a.493.493,0,1,1,.846.505C2570.993,832.294,2568.727,833.334,2565.474,833.334Z" transform="translate(-2551.005 -814.072)" fill="#303c60"/>
      </g>
    </g>
    <path id="Path_10406" data-name="Path 10406" d="M1711.333,1348.174h3.639l14.154-108.2h-8Z" transform="translate(-1182.623 -888.366)" fill="#2e5b9a"/>
    <path id="Path_10407" data-name="Path 10407" d="M2251.947,1348.174h-3.638l-14.155-108.2h8Z" transform="translate(-1599.769 -888.366)" fill="#2e5b9a"/>
    <g id="Group_11397" data-name="Group 11397" transform="translate(750.892 343.274)">
      <path id="Path_10408" data-name="Path 10408" d="M3002.206,1323.431c6.3,5.747,3.558,11.5-1.095,22.17s-5.474,50.088-5.474,50.088l3.832-.547s-.547-40.508,4.653-51.456,7.39-16.422,12.043-12.864S3002.206,1323.431,3002.206,1323.431Z" transform="translate(-2958.231 -1298.227)" fill="#74b570"/>
      <path id="Path_10409" data-name="Path 10409" d="M3009.685,1216.5c.765-3.406,5.3-7.092,11.376-10.218-.9,5.024-3.8,13.238-.8,14.923,4.04,2.272.394-9.2,1.952-15.5a75.013,75.013,0,0,1,18.875-6.192c-.009.023-.016.046-.026.069-3.558,9.032-8.211,12.59-6.3,13.959,1.441,1.029,6.136-9.4,12.336-14.752,4.653-.248,8.59.383,10.919,2.227,3.6,2.85,6.016,5.378,2.4,14.056a16.27,16.27,0,0,1-7.86,2.849c-8.211.821-12.043,1.095-6.3,3.832,2.815,1.34,7.532-.076,11.358-.938-1.241,2.287-2.766,4.875-4.62,7.822a29.048,29.048,0,0,1-3.847,4.9c-2.647.507-4.954.513-6.176-.011-3.832-1.642-13.685-6.843-16.148-4.653-2.411,2.143,18.248,3.5,16.816,8.947-10.013,5.769-21.472,3.024-23.5-2.274C3017.427,1228.422,3007.384,1226.749,3009.685,1216.5Z" transform="translate(-2969.168 -1198.733)" fill="#9cd499"/>
      <path id="Path_10410" data-name="Path 10410" d="M2991.153,1465.328c-10.948-8.211-22.17-.547-27.918,8.211s-1.642,28.465-1.642,28.465,2.19,0,2.19-.821-6.021-23.265,8.211-33.392c8.9-6.335,15.328-3.284,16.149-.274s-3.558,8.485-3.558,8.485Z" transform="translate(-2929.934 -1408.648)" fill="#74b570"/>
      <path id="Path_10411" data-name="Path 10411" d="M2986.945,1395.649c10.948,0,14.507,16.97,11.5,26.823s-7.116,28.192-7.116,28.192l-2.737-2.737s10.4-25.728,7.938-37.224-8.485-13.412-9.58-13.412S2986.945,1395.649,2986.945,1395.649Z" transform="translate(-2950.908 -1355.847)" fill="#9cd499"/>
      <path id="Path_10412" data-name="Path 10412" d="M3023.45,1519.173a7.931,7.931,0,0,1,2.882-2.422,21.742,21.742,0,0,1-.569,2.345c-1.372,4.489-2.971,10.74-4.305,16.215-.121-.7-.308-1.781-.6-3.448-.068-.394-.121-.821-.159-1.274A106.058,106.058,0,0,0,3023.45,1519.173Z" transform="translate(-2978.23 -1452.472)" fill="#74b570"/>
      <path id="Path_10413" data-name="Path 10413" d="M3026.76,1468.222c20.8-8.758,9.842-20.777,28.18-12.84a13.608,13.608,0,0,1,4.442,3.913,13.651,13.651,0,0,1-5.811.466c-5.474-.821-3.558,3.558,5.474,4.653a20.275,20.275,0,0,1,4.232.893c4.3,8.264,6.242,19.139-2.864,22.919a20.61,20.61,0,0,1-6.48,1.33c-2.81-2.233.686-15.157-3.646-13.373-4.159,1.713,1.3,11.079.555,13.438a59.971,59.971,0,0,1-12.994-1.821,6.468,6.468,0,0,1-3.436-3.953c-1.368-5.748,7.664-9.306,7.938-14.232.251-4.529-3.311,9.964-12.748,12.1C3021.068,1477.725,3017.036,1472.316,3026.76,1468.222Z" transform="translate(-2978.546 -1401.439)" fill="#9cd499"/>
      <path id="Path_10414" data-name="Path 10414" d="M2843.963,1374.2c2.189-4.653-3.558-5.748-3.285-2.19.243,3.153.27,10.817-2.964,12.9a50.737,50.737,0,0,1-18.9-6.276,2.326,2.326,0,0,1,.241-1.427c2.463-4.927,18.338-9.032,13.412-10.675-3.924-1.308-10.8,6.412-16.339,10.3-3.328-2.525-5.557-5.534-5.557-8.894,0-4.547,5.525-9.694,12.67-12.154,3.216.324,6.2,2.082,10.869,4.726,6.892,3.906,5.3-2.409-1.218-6.157a19.629,19.629,0,0,1,15.371,8.437s-.391,2.455,2.207,6.251c7.087,10.358-1.092,16.4-10.869,16.012C2840.153,1382.326,2842.449,1377.413,2843.963,1374.2Z" transform="translate(-2810.571 -1322.901)" fill="#9cd499"/>
      <path id="Path_10415" data-name="Path 10415" d="M3100.523,1476.584c5.353,4.136,11.3,8.972,18.6,12.257s5.839,13.99,5.839,13.99,1.095-9.245-4.988-12.408-10.1-6.934-14.72-7.664a66.954,66.954,0,0,1-7.177-1.46s1.459-2.92.608-4.015S3100.523,1476.584,3100.523,1476.584Z" transform="translate(-3039.964 -1420.369)" fill="#74b570"/>
      <path id="Path_10416" data-name="Path 10416" d="M3085.609,1236.565c-19.586,5.231-33.941,17.761-36.617,20.8s-2.677,3.893-2.677,3.893l2.068,3.893.973-.487s-1.582-3.285,2.555-7.543c7.133-7.343,15.815-13.138,21.776-15.693S3085.609,1236.565,3085.609,1236.565Z" transform="translate(-2998.666 -1228.918)" fill="#74b570"/>
      <path id="Rectangle_4131" data-name="Rectangle 4131" d="M13.376,0h0A13.376,13.376,0,0,1,26.752,13.376V26.827a0,0,0,0,1,0,0H0a0,0,0,0,1,0,0V13.376A13.376,13.376,0,0,1,13.376,0Z" transform="translate(49.997 116.059) rotate(180)" fill="#75a1de"/>
      <rect id="Rectangle_4132" data-name="Rectangle 4132" width="26.752" height="1.883" transform="translate(23.245 92.305)" fill="#fff"/>
      <rect id="Rectangle_4133" data-name="Rectangle 4133" width="26.752" height="1.108" transform="translate(23.245 95.739)" fill="#fff"/>
    </g>
    <g id="Group_11398" data-name="Group 11398" transform="translate(252.369 425.79)">
      <rect id="Rectangle_4134" data-name="Rectangle 4134" width="11.265" height="10.138" rx="5.069" transform="translate(52.227 10.138) rotate(180)" fill="#9ec8ff"/>
      <rect id="Rectangle_4135" data-name="Rectangle 4135" width="11.265" height="10.138" rx="5.069" transform="translate(31.746 10.138) rotate(180)" fill="#9ec8ff"/>
      <rect id="Rectangle_4136" data-name="Rectangle 4136" width="11.265" height="10.138" rx="5.069" transform="translate(11.265 10.138) rotate(180)" fill="#9ec8ff"/>
    </g>
    <g id="Group_11399" data-name="Group 11399" transform="translate(827.537 238.176)">
      <path id="Rectangle_4137" data-name="Rectangle 4137" d="M5.068,0H6.2a5.069,5.069,0,0,1,5.069,5.069v0A5.069,5.069,0,0,1,6.2,10.138H5.069A5.069,5.069,0,0,1,0,5.069v0A5.068,5.068,0,0,1,5.068,0Z" transform="translate(10.138 0) rotate(90)" fill="#9ec8ff"/>
      <path id="Rectangle_4138" data-name="Rectangle 4138" d="M5.069,0H6.2a5.069,5.069,0,0,1,5.069,5.069v0a5.07,5.07,0,0,1-5.07,5.07H5.069A5.069,5.069,0,0,1,0,5.069v0A5.069,5.069,0,0,1,5.069,0Z" transform="translate(10.138 20.481) rotate(90)" fill="#9ec8ff"/>
      <path id="Rectangle_4139" data-name="Rectangle 4139" d="M5.069,0H6.2a5.069,5.069,0,0,1,5.069,5.069v0A5.069,5.069,0,0,1,6.2,10.138H5.069A5.069,5.069,0,0,1,0,5.069v0A5.069,5.069,0,0,1,5.069,0Z" transform="translate(10.138 40.962) rotate(90)" fill="#9ec8ff"/>
    </g>
  </g>
</svg>
